<?xml version="1.0" encoding="UTF-8" standalone="no"?>
<svg xmlns="http://www.w3.org/2000/svg" version="1.2" baseProfile="tiny" viewBox="0 0 1599 121">
<g stroke-width="2.00" fill="none" stroke-linecap="butt">
<path stroke="#b7aa46" vector-effect="non-scaling-stroke" d="
  M 821.50 57.29
  L 824.21 61.25"
/>
<path stroke="#9f8f36" vector-effect="non-scaling-stroke" d="
  M 824.21 61.25
  Q 824.47 61.44 824.64 61.66
  Q 825.52 62.82 824.07 62.95
  L 815.49 63.67
  A 1.00 0.99 -3.9 0 0 814.57 64.71
  L 814.99 72.90
  Q 815.08 74.68 813.52 73.83
  L 806.33 69.93
  A 1.01 1.01 0.0 0 0 804.97 70.34
  L 801.06 77.56
  Q 800.20 79.16 799.31 77.58
  L 795.26 70.34
  A 1.00 0.99 -29.0 0 0 793.91 69.96
  L 786.72 73.89
  Q 785.12 74.77 785.24 72.95
  L 785.80 64.79
  A 1.00 1.00 0.0 0 0 784.89 63.72
  L 776.51 62.98
  A 1.00 1.00 0.0 0 1 775.73 61.48
  Q 775.94 61.12 776.25 60.79"
/>
<path stroke="#b7aa46" vector-effect="non-scaling-stroke" d="
  M 776.25 60.79
  Q 777.94 59.37 778.50 57.29"
/>
<path stroke="#efd698" vector-effect="non-scaling-stroke" d="
  M 788.91 46.09
  A 0.34 0.34 0.0 0 1 788.70 46.52
  L 782.78 48.64
  A 0.34 0.34 0.0 0 0 782.69 49.23
  L 787.82 53.15
  A 0.34 0.34 0.0 0 1 787.88 53.63
  L 783.97 58.66
  A 0.34 0.34 0.0 0 0 784.22 59.21
  L 790.49 59.57
  A 0.34 0.34 0.0 0 1 790.81 59.92
  L 790.61 66.24
  A 0.34 0.34 0.0 0 0 791.11 66.56
  L 796.60 63.65
  A 0.34 0.34 0.0 0 1 797.06 63.79
  L 800.07 69.32
  A 0.34 0.34 0.0 0 0 800.66 69.33
  L 803.77 63.83
  A 0.34 0.34 0.0 0 1 804.22 63.69
  L 809.80 66.62
  A 0.34 0.34 0.0 0 0 810.30 66.30
  L 809.81 59.98
  A 0.34 0.34 0.0 0 1 810.12 59.62
  L 816.54 59.20
  A 0.34 0.34 0.0 0 0 816.78 58.66
  L 812.94 53.63
  A 0.34 0.34 0.0 0 1 813.00 53.15
  L 818.03 49.27
  A 0.34 0.34 0.0 0 0 817.94 48.69
  L 812.08 46.49
  A 0.34 0.34 0.0 0 1 811.87 46.05
  L 814.05 40.06
  A 0.34 0.34 0.0 0 0 813.66 39.61
  L 807.53 40.94
  A 0.34 0.34 0.0 0 1 807.12 40.68
  L 805.68 34.40
  A 0.34 0.34 0.0 0 0 805.10 34.24
  L 800.66 38.80
  A 0.34 0.34 0.0 0 1 800.18 38.81
  L 795.67 34.29
  A 0.34 0.34 0.0 0 0 795.10 34.46
  L 793.78 40.61
  A 0.34 0.34 0.0 0 1 793.38 40.87
  L 787.16 39.63
  A 0.34 0.34 0.0 0 0 786.77 40.07
  L 788.91 46.09"
/>
<path stroke="#b7aa46" vector-effect="non-scaling-stroke" d="
  M 775.25 56.71
  Q 771.69 58.41 769.29 61.50"
/>
<path stroke="#9f8f36" vector-effect="non-scaling-stroke" d="
  M 769.29 61.50
  L 774.33 68.72
  Q 775.35 70.17 773.58 70.29
  L 765.39 70.82
  A 0.99 0.99 0.0 0 0 764.46 71.87
  L 764.94 80.16
  Q 765.04 81.95 763.47 81.10
  L 756.28 77.22
  A 1.00 0.99 28.2 0 0 754.93 77.62
  L 751.01 84.84
  Q 750.14 86.43 749.26 84.85
  L 745.22 77.62
  A 1.00 1.00 0.0 0 0 743.87 77.23
  L 736.66 81.15
  Q 735.06 82.02 735.18 80.20
  L 735.76 71.92
  A 1.00 0.99 -86.0 0 0 734.84 70.85
  L 726.63 70.28
  Q 724.81 70.15 725.89 68.69
  L 730.77 62.10
  A 0.99 0.99 0.0 0 0 730.53 60.68
  L 725.75 57.46"
/>
<path stroke="#b7aa46" vector-effect="non-scaling-stroke" d="
  M 725.75 57.46
  Q 720.96 54.42 726.00 53.21"
/>
<path stroke="#efd698" vector-effect="non-scaling-stroke" d="
  M 761.80 53.77
  A 0.35 0.35 0.0 0 1 761.60 53.32
  L 763.73 47.40
  A 0.35 0.35 0.0 0 0 763.33 46.94
  L 757.18 48.24
  A 0.35 0.35 0.0 0 1 756.77 47.97
  L 755.39 41.74
  A 0.35 0.35 0.0 0 0 754.80 41.57
  L 750.40 45.98
  A 0.35 0.35 0.0 0 1 749.91 45.99
  L 745.36 41.79
  A 0.35 0.35 0.0 0 0 744.78 41.97
  L 743.40 47.95
  A 0.35 0.35 0.0 0 1 742.98 48.22
  L 736.89 46.92
  A 0.35 0.35 0.0 0 0 736.49 47.38
  L 738.58 53.34
  A 0.35 0.35 0.0 0 1 738.36 53.79
  L 732.45 55.93
  A 0.35 0.35 0.0 0 0 732.36 56.54
  L 737.48 60.30
  A 0.35 0.35 0.0 0 1 737.55 60.79
  L 733.74 65.90
  A 0.35 0.35 0.0 0 0 734.00 66.46
  L 740.28 66.85
  A 0.35 0.35 0.0 0 1 740.61 67.22
  L 740.26 73.58
  A 0.35 0.35 0.0 0 0 740.77 73.91
  L 746.24 70.92
  A 0.35 0.35 0.0 0 1 746.71 71.06
  L 749.84 76.57
  A 0.35 0.35 0.0 0 0 750.45 76.56
  L 753.36 71.11
  A 0.35 0.35 0.0 0 1 753.83 70.96
  L 759.43 73.87
  A 0.35 0.35 0.0 0 0 759.94 73.54
  L 759.55 67.30
  A 0.35 0.35 0.0 0 1 759.87 66.93
  L 766.14 66.46
  A 0.35 0.35 0.0 0 0 766.39 65.90
  L 762.63 60.83
  A 0.35 0.35 0.0 0 1 762.70 60.34
  L 767.79 56.57
  A 0.35 0.35 0.0 0 0 767.70 55.96
  L 761.80 53.77"
/>
<path stroke="#b7aa46" vector-effect="non-scaling-stroke" d="
  M 875.18 53.10
  Q 875.01 54.12 876.31 54.02
  A 0.65 0.64 -86.5 0 1 876.98 54.79
  C 876.85 55.45 875.57 55.95 875.29 57.00"
/>
<path stroke="#9f8f36" vector-effect="non-scaling-stroke" d="
  M 875.29 57.00
  L 869.84 60.73
  A 1.00 1.00 0.0 0 0 869.60 62.15
  L 874.42 68.66
  Q 875.49 70.11 873.70 70.25
  L 865.48 70.92
  A 1.00 1.00 0.0 0 0 864.56 71.99
  L 865.14 80.17
  Q 865.27 81.98 863.68 81.13
  L 856.40 77.25
  A 1.01 1.00 28.1 0 0 855.05 77.65
  L 851.13 84.78
  Q 850.26 86.35 849.38 84.79
  L 845.32 77.58
  A 1.00 0.99 -29.0 0 0 843.97 77.20
  L 836.83 81.10
  Q 835.26 81.96 835.36 80.17
  L 835.81 71.93
  A 0.99 0.99 0.0 0 0 834.89 70.88
  L 826.82 70.29
  Q 824.91 70.15 826.12 68.67
  Q 828.92 65.21 830.97 61.15"
/>
<path stroke="#b7aa46" vector-effect="non-scaling-stroke" d="
  M 830.97 61.15
  L 824.79 56.50"
/>
<path stroke="#efd698" vector-effect="non-scaling-stroke" d="
  M 861.97 53.71
  A 0.40 0.40 0.0 0 1 861.74 53.20
  L 863.79 47.52
  A 0.40 0.40 0.0 0 0 863.34 46.99
  L 857.34 48.14
  A 0.40 0.40 0.0 0 1 856.87 47.83
  L 855.50 41.76
  A 0.40 0.40 0.0 0 0 854.83 41.57
  L 850.55 46.00
  A 0.40 0.40 0.0 0 1 849.98 46.01
  L 845.56 41.71
  A 0.40 0.40 0.0 0 0 844.89 41.92
  L 843.62 47.88
  A 0.40 0.40 0.0 0 1 843.15 48.19
  L 837.08 46.99
  A 0.40 0.40 0.0 0 0 836.63 47.52
  L 838.72 53.19
  A 0.40 0.40 0.0 0 1 838.49 53.70
  L 832.68 55.88
  A 0.40 0.40 0.0 0 0 832.58 56.58
  L 837.50 60.28
  A 0.40 0.40 0.0 0 1 837.58 60.84
  L 833.96 65.79
  A 0.40 0.40 0.0 0 0 834.25 66.42
  L 840.39 66.94
  A 0.40 0.40 0.0 0 1 840.75 67.36
  L 840.34 73.41
  A 0.40 0.40 0.0 0 0 840.92 73.79
  L 846.42 70.99
  A 0.40 0.40 0.0 0 1 846.95 71.16
  L 849.83 76.56
  A 0.40 0.40 0.0 0 0 850.54 76.57
  L 853.59 71.08
  A 0.40 0.40 0.0 0 1 854.14 70.93
  L 859.44 73.90
  A 0.40 0.40 0.0 0 0 860.04 73.53
  L 859.69 67.44
  A 0.40 0.40 0.0 0 1 860.05 67.02
  L 866.21 66.42
  A 0.40 0.40 0.0 0 0 866.49 65.78
  L 862.82 60.92
  A 0.40 0.40 0.0 0 1 862.90 60.36
  L 867.79 56.64
  A 0.40 0.40 0.0 0 0 867.70 55.95
  L 861.97 53.71"
/>
<path stroke="#efd698" vector-effect="non-scaling-stroke" d="
  M 806.11 51.90
  A 5.61 5.61 0.0 0 0 800.50 46.29
  A 5.61 5.61 0.0 0 0 794.89 51.90
  A 5.61 5.61 0.0 0 0 800.50 57.51
  A 5.61 5.61 0.0 0 0 806.11 51.90"
/>
<path stroke="#efd698" vector-effect="non-scaling-stroke" d="
  M 755.70 59.16
  A 5.60 5.60 0.0 0 0 750.10 53.56
  A 5.60 5.60 0.0 0 0 744.50 59.16
  A 5.60 5.60 0.0 0 0 750.10 64.76
  A 5.60 5.60 0.0 0 0 755.70 59.16"
/>
<path stroke="#efd698" vector-effect="non-scaling-stroke" d="
  M 855.81 59.16
  A 5.61 5.61 0.0 0 0 850.20 53.55
  A 5.61 5.61 0.0 0 0 844.59 59.16
  A 5.61 5.61 0.0 0 0 850.20 64.77
  A 5.61 5.61 0.0 0 0 855.81 59.16"
/>
<path stroke="#788c4b" vector-effect="non-scaling-stroke" d="
  M 725.75 57.46
  C 722.24 56.63 718.28 55.38 714.68 55.56
  C 708.19 55.90 705.12 60.48 710.75 65.24
  C 713.61 67.66 719.45 71.08 719.30 75.23
  A 1.12 1.05 -26.7 0 1 719.09 75.80
  C 711.79 85.34 690.68 84.41 680.56 83.20
  C 672.74 82.26 657.11 79.48 656.22 70.06
  A 0.98 0.92 58.7 0 1 656.34 69.49
  Q 660.02 62.68 667.43 65.50
  C 668.68 65.98 669.94 65.72 669.01 64.00
  C 661.69 50.43 640.14 52.42 639.97 69.21
  C 639.89 77.23 629.80 73.95 625.77 71.73
  C 620.48 68.81 615.16 65.14 609.70 63.53
  Q 595.93 59.45 582.38 64.19
  C 573.17 67.41 568.04 74.27 557.56 74.19
  Q 554.34 74.17 554.12 70.96
  C 553.67 64.36 552.55 59.02 545.65 56.41
  Q 532.24 51.35 524.66 64.28
  A 0.99 0.99 0.0 0 0 524.69 65.34
  Q 525.13 65.99 525.94 65.67
  Q 532.23 63.22 536.25 67.30
  C 541.49 72.63 531.04 78.82 527.18 80.16
  C 513.64 84.87 494.62 85.44 481.04 80.78
  Q 478.28 79.83 476.28 77.70
  C 468.71 69.63 491.35 65.83 485.03 57.76
  C 482.27 54.24 473.71 55.71 470.23 57.00
  C 463.23 59.60 453.87 65.96 445.55 66.51
  C 436.89 67.07 429.55 60.89 421.13 61.08
  C 411.52 61.30 405.26 67.83 396.30 68.96
  C 384.32 70.47 375.27 58.38 364.55 61.56
  Q 361.09 62.59 354.49 65.44
  C 337.43 72.82 323.17 52.96 306.83 55.79
  C 301.37 56.74 300.91 61.91 304.77 65.03
  Q 308.88 68.35 312.48 71.55
  Q 315.08 73.87 312.83 76.52
  C 303.86 87.07 275.29 84.17 263.69 81.07
  C 259.47 79.94 248.55 74.83 251.09 68.88
  C 252.91 64.64 258.26 63.86 262.23 65.71
  Q 264.93 66.96 263.53 64.33
  C 255.72 49.57 232.91 52.84 234.32 70.99
  A 0.94 0.93 57.3 0 1 234.20 71.55
  C 229.44 80.10 212.82 66.62 206.16 64.29
  Q 185.15 56.96 166.20 69.74
  C 162.19 72.44 147.93 78.93 148.21 68.76
  C 148.40 61.93 144.03 57.15 137.47 55.57
  Q 126.25 52.87 119.35 63.57
  Q 118.62 64.70 119.25 65.47
  A 0.80 0.79 -32.2 0 0 120.20 65.68
  C 127.66 62.22 137.37 69.16 128.07 76.35
  C 116.32 85.46 93.74 84.75 80.83 82.37
  C 77.01 81.66 68.11 78.65 69.26 73.57
  C 70.44 68.39 85.02 63.51 79.25 57.68
  C 75.13 53.51 65.32 56.37 60.71 58.51
  C 53.17 62.00 46.57 66.30 39.39 66.51
  C 30.27 66.79 21.40 59.57 12.74 60.98
  Q 10.36 61.36 0.79 64.87"
/>
<path stroke="#788c4b" vector-effect="non-scaling-stroke" d="
  M 1599.00 65.56
  Q 1594.26 62.97 1589.06 61.58
  C 1581.83 59.65 1574.81 64.48 1569.69 66.26
  Q 1562.33 68.81 1554.63 65.44
  C 1548.01 62.54 1525.95 50.23 1520.02 58.05
  C 1514.33 65.57 1535.43 69.47 1529.39 76.89
  C 1522.36 85.53 1499.90 84.26 1489.86 82.91
  C 1482.16 81.87 1476.05 80.47 1470.64 75.59
  C 1462.73 68.45 1472.69 62.49 1479.32 65.71
  Q 1480.25 66.16 1480.64 65.25
  A 1.00 1.00 0.0 0 0 1480.62 64.40
  Q 1474.83 52.99 1462.28 55.47
  Q 1454.16 57.07 1451.83 64.99
  C 1450.82 68.44 1452.59 74.38 1446.74 74.24
  C 1436.91 73.99 1431.00 66.79 1422.19 63.90
  Q 1405.96 58.58 1390.30 65.60
  C 1386.74 67.20 1364.93 82.34 1365.26 69.01
  C 1365.46 60.95 1360.02 56.10 1352.32 55.20
  Q 1341.94 53.99 1336.24 63.99
  C 1335.79 64.79 1335.89 66.22 1337.18 65.72
  C 1341.02 64.21 1345.45 64.27 1348.04 67.68
  C 1351.66 72.45 1343.21 78.80 1339.77 79.88
  C 1326.92 83.90 1300.63 87.16 1288.95 78.77
  C 1279.37 71.88 1296.38 67.15 1297.51 60.95
  C 1298.54 55.31 1289.63 55.16 1285.73 55.93
  C 1275.08 58.06 1266.83 65.99 1255.53 66.43
  C 1246.25 66.79 1237.57 58.81 1228.06 61.30
  C 1220.92 63.16 1212.81 69.49 1204.16 69.06
  C 1198.53 68.77 1192.13 65.03 1186.66 62.60
  C 1178.92 59.16 1173.98 62.15 1165.66 65.71
  C 1157.80 69.08 1151.98 66.55 1144.53 63.38
  C 1138.72 60.90 1118.07 50.02 1113.86 58.81
  C 1111.09 64.57 1122.28 67.92 1124.57 72.64
  C 1126.27 76.16 1121.56 79.62 1118.68 80.67
  C 1104.94 85.67 1077.10 85.91 1064.75 75.55
  C 1057.14 69.17 1066.42 62.76 1073.22 65.53
  C 1074.97 66.25 1075.51 65.11 1074.66 63.73
  Q 1066.56 50.59 1051.77 57.26
  C 1046.99 59.41 1045.96 65.67 1045.48 70.59
  Q 1045.12 74.25 1041.44 74.20
  C 1031.59 74.07 1026.84 67.88 1018.22 64.58
  C 1004.42 59.28 991.03 61.23 978.45 69.10
  C 974.60 71.51 959.72 79.62 959.64 69.17
  C 959.51 52.18 937.19 50.32 930.30 64.70
  A 0.51 0.51 0.0 0 0 930.52 65.37
  L 930.84 65.54
  A 0.97 0.95 47.0 0 0 931.69 65.58
  Q 936.88 63.41 940.91 66.41
  C 948.95 72.39 935.36 79.57 930.88 80.80
  Q 912.25 85.93 892.98 82.57
  C 887.88 81.68 874.86 77.12 883.20 70.01
  C 885.78 67.81 890.52 64.82 891.54 61.97
  C 894.64 53.28 878.74 55.91 875.29 57.00"
/>
<path stroke="#788c4b" vector-effect="non-scaling-stroke" d="
  M 769.29 61.50
  L 776.25 60.79"
/>
<path stroke="#788c4b" vector-effect="non-scaling-stroke" d="
  M 824.21 61.25
  Q 827.25 60.45 830.97 61.15"
/>
</g>
<path fill="#dead31" d="
  M 821.50 57.29
  L 824.21 61.25
  Q 824.47 61.44 824.64 61.66
  Q 825.52 62.82 824.07 62.95
  L 815.49 63.67
  A 1.00 0.99 -3.9 0 0 814.57 64.71
  L 814.99 72.90
  Q 815.08 74.68 813.52 73.83
  L 806.33 69.93
  A 1.01 1.01 0.0 0 0 804.97 70.34
  L 801.06 77.56
  Q 800.20 79.16 799.31 77.58
  L 795.26 70.34
  A 1.00 0.99 -29.0 0 0 793.91 69.96
  L 786.72 73.89
  Q 785.12 74.77 785.24 72.95
  L 785.80 64.79
  A 1.00 1.00 0.0 0 0 784.89 63.72
  L 776.51 62.98
  A 1.00 1.00 0.0 0 1 775.73 61.48
  Q 775.94 61.12 776.25 60.79
  Q 777.94 59.37 778.50 57.29
  Q 780.15 56.30 780.92 54.58
  A 1.01 1.01 0.0 0 0 780.60 53.37
  L 774.07 48.48
  Q 772.61 47.39 774.31 46.74
  L 782.00 43.83
  A 1.00 1.00 0.0 0 0 782.58 42.55
  L 779.76 34.84
  Q 779.14 33.15 780.90 33.52
  L 788.98 35.19
  A 1.00 1.00 0.0 0 0 790.16 34.43
  L 791.90 26.49
  Q 792.28 24.74 793.57 25.98
  L 799.50 31.70
  A 1.00 1.00 0.0 0 0 800.90 31.69
  L 806.67 25.94
  Q 807.94 24.67 808.35 26.43
  L 810.18 34.42
  A 1.00 1.00 0.0 0 0 811.36 35.17
  L 819.41 33.46
  Q 821.17 33.09 820.56 34.78
  L 817.73 42.54
  A 1.00 0.99 20.5 0 0 818.32 43.81
  L 826.00 46.72
  Q 827.69 47.37 826.25 48.46
  L 819.72 53.41
  A 0.99 0.99 0.0 0 0 819.54 54.82
  L 821.50 57.29
  Z
  M 788.91 46.09
  A 0.34 0.34 0.0 0 1 788.70 46.52
  L 782.78 48.64
  A 0.34 0.34 0.0 0 0 782.69 49.23
  L 787.82 53.15
  A 0.34 0.34 0.0 0 1 787.88 53.63
  L 783.97 58.66
  A 0.34 0.34 0.0 0 0 784.22 59.21
  L 790.49 59.57
  A 0.34 0.34 0.0 0 1 790.81 59.92
  L 790.61 66.24
  A 0.34 0.34 0.0 0 0 791.11 66.56
  L 796.60 63.65
  A 0.34 0.34 0.0 0 1 797.06 63.79
  L 800.07 69.32
  A 0.34 0.34 0.0 0 0 800.66 69.33
  L 803.77 63.83
  A 0.34 0.34 0.0 0 1 804.22 63.69
  L 809.80 66.62
  A 0.34 0.34 0.0 0 0 810.30 66.30
  L 809.81 59.98
  A 0.34 0.34 0.0 0 1 810.12 59.62
  L 816.54 59.20
  A 0.34 0.34 0.0 0 0 816.78 58.66
  L 812.94 53.63
  A 0.34 0.34 0.0 0 1 813.00 53.15
  L 818.03 49.27
  A 0.34 0.34 0.0 0 0 817.94 48.69
  L 812.08 46.49
  A 0.34 0.34 0.0 0 1 811.87 46.05
  L 814.05 40.06
  A 0.34 0.34 0.0 0 0 813.66 39.61
  L 807.53 40.94
  A 0.34 0.34 0.0 0 1 807.12 40.68
  L 805.68 34.40
  A 0.34 0.34 0.0 0 0 805.10 34.24
  L 800.66 38.80
  A 0.34 0.34 0.0 0 1 800.18 38.81
  L 795.67 34.29
  A 0.34 0.34 0.0 0 0 795.10 34.46
  L 793.78 40.61
  A 0.34 0.34 0.0 0 1 793.38 40.87
  L 787.16 39.63
  A 0.34 0.34 0.0 0 0 786.77 40.07
  L 788.91 46.09
  Z"
/>
<path fill="#dead31" d="
  M 775.25 56.71
  Q 771.69 58.41 769.29 61.50
  L 774.33 68.72
  Q 775.35 70.17 773.58 70.29
  L 765.39 70.82
  A 0.99 0.99 0.0 0 0 764.46 71.87
  L 764.94 80.16
  Q 765.04 81.95 763.47 81.10
  L 756.28 77.22
  A 1.00 0.99 28.2 0 0 754.93 77.62
  L 751.01 84.84
  Q 750.14 86.43 749.26 84.85
  L 745.22 77.62
  A 1.00 1.00 0.0 0 0 743.87 77.23
  L 736.66 81.15
  Q 735.06 82.02 735.18 80.20
  L 735.76 71.92
  A 1.00 0.99 -86.0 0 0 734.84 70.85
  L 726.63 70.28
  Q 724.81 70.15 725.89 68.69
  L 730.77 62.10
  A 0.99 0.99 0.0 0 0 730.53 60.68
  L 725.75 57.46
  Q 720.96 54.42 726.00 53.21
  L 731.91 51.01
  A 1.00 0.99 70.0 0 0 732.50 49.73
  L 729.70 42.08
  Q 729.09 40.39 730.85 40.76
  L 738.86 42.44
  A 1.00 1.00 0.0 0 0 740.04 41.68
  L 741.85 33.67
  Q 742.25 31.92 743.53 33.17
  L 749.42 38.94
  A 1.00 1.00 0.0 0 0 750.82 38.94
  L 756.65 33.26
  Q 757.92 32.02 758.32 33.76
  L 760.12 41.71
  A 1.00 1.00 0.0 0 0 761.31 42.46
  L 769.37 40.74
  Q 771.15 40.36 770.51 42.07
  L 767.65 49.80
  A 0.99 0.99 0.0 0 0 768.23 51.08
  L 775.89 53.96
  A 0.99 0.99 0.0 0 1 776.28 55.56
  L 775.25 56.71
  Z
  M 761.80 53.77
  A 0.35 0.35 0.0 0 1 761.60 53.32
  L 763.73 47.40
  A 0.35 0.35 0.0 0 0 763.33 46.94
  L 757.18 48.24
  A 0.35 0.35 0.0 0 1 756.77 47.97
  L 755.39 41.74
  A 0.35 0.35 0.0 0 0 754.80 41.57
  L 750.40 45.98
  A 0.35 0.35 0.0 0 1 749.91 45.99
  L 745.36 41.79
  A 0.35 0.35 0.0 0 0 744.78 41.97
  L 743.40 47.95
  A 0.35 0.35 0.0 0 1 742.98 48.22
  L 736.89 46.92
  A 0.35 0.35 0.0 0 0 736.49 47.38
  L 738.58 53.34
  A 0.35 0.35 0.0 0 1 738.36 53.79
  L 732.45 55.93
  A 0.35 0.35 0.0 0 0 732.36 56.54
  L 737.48 60.30
  A 0.35 0.35 0.0 0 1 737.55 60.79
  L 733.74 65.90
  A 0.35 0.35 0.0 0 0 734.00 66.46
  L 740.28 66.85
  A 0.35 0.35 0.0 0 1 740.61 67.22
  L 740.26 73.58
  A 0.35 0.35 0.0 0 0 740.77 73.91
  L 746.24 70.92
  A 0.35 0.35 0.0 0 1 746.71 71.06
  L 749.84 76.57
  A 0.35 0.35 0.0 0 0 750.45 76.56
  L 753.36 71.11
  A 0.35 0.35 0.0 0 1 753.83 70.96
  L 759.43 73.87
  A 0.35 0.35 0.0 0 0 759.94 73.54
  L 759.55 67.30
  A 0.35 0.35 0.0 0 1 759.87 66.93
  L 766.14 66.46
  A 0.35 0.35 0.0 0 0 766.39 65.90
  L 762.63 60.83
  A 0.35 0.35 0.0 0 1 762.70 60.34
  L 767.79 56.57
  A 0.35 0.35 0.0 0 0 767.70 55.96
  L 761.80 53.77
  Z"
/>
<path fill="#dead31" d="
  M 875.18 53.10
  Q 875.01 54.12 876.31 54.02
  A 0.65 0.64 -86.5 0 1 876.98 54.79
  C 876.85 55.45 875.57 55.95 875.29 57.00
  L 869.84 60.73
  A 1.00 1.00 0.0 0 0 869.60 62.15
  L 874.42 68.66
  Q 875.49 70.11 873.70 70.25
  L 865.48 70.92
  A 1.00 1.00 0.0 0 0 864.56 71.99
  L 865.14 80.17
  Q 865.27 81.98 863.68 81.13
  L 856.40 77.25
  A 1.01 1.00 28.1 0 0 855.05 77.65
  L 851.13 84.78
  Q 850.26 86.35 849.38 84.79
  L 845.32 77.58
  A 1.00 0.99 -29.0 0 0 843.97 77.20
  L 836.83 81.10
  Q 835.26 81.96 835.36 80.17
  L 835.81 71.93
  A 0.99 0.99 0.0 0 0 834.89 70.88
  L 826.82 70.29
  Q 824.91 70.15 826.12 68.67
  Q 828.92 65.21 830.97 61.15
  L 824.79 56.50
  L 824.03 55.56
  A 1.01 1.00 -30.1 0 1 824.45 53.99
  L 832.09 51.08
  A 0.99 0.99 0.0 0 0 832.67 49.80
  L 829.80 42.10
  Q 829.17 40.40 830.94 40.77
  L 839.02 42.46
  A 1.00 1.00 0.0 0 0 840.20 41.69
  L 841.95 33.72
  Q 842.34 31.94 843.63 33.22
  L 849.51 39.05
  A 1.00 1.00 0.0 0 0 850.92 39.05
  L 856.79 33.24
  Q 858.08 31.95 858.47 33.73
  L 860.21 41.70
  A 1.00 1.00 0.0 0 0 861.40 42.46
  L 869.48 40.73
  Q 871.25 40.35 870.63 42.06
  L 867.78 49.84
  A 1.01 1.00 -67.4 0 0 868.29 51.09
  Q 871.60 52.64 875.18 53.10
  Z
  M 861.97 53.71
  A 0.40 0.40 0.0 0 1 861.74 53.20
  L 863.79 47.52
  A 0.40 0.40 0.0 0 0 863.34 46.99
  L 857.34 48.14
  A 0.40 0.40 0.0 0 1 856.87 47.83
  L 855.50 41.76
  A 0.40 0.40 0.0 0 0 854.83 41.57
  L 850.55 46.00
  A 0.40 0.40 0.0 0 1 849.98 46.01
  L 845.56 41.71
  A 0.40 0.40 0.0 0 0 844.89 41.92
  L 843.62 47.88
  A 0.40 0.40 0.0 0 1 843.15 48.19
  L 837.08 46.99
  A 0.40 0.40 0.0 0 0 836.63 47.52
  L 838.72 53.19
  A 0.40 0.40 0.0 0 1 838.49 53.70
  L 832.68 55.88
  A 0.40 0.40 0.0 0 0 832.58 56.58
  L 837.50 60.28
  A 0.40 0.40 0.0 0 1 837.58 60.84
  L 833.96 65.79
  A 0.40 0.40 0.0 0 0 834.25 66.42
  L 840.39 66.94
  A 0.40 0.40 0.0 0 1 840.75 67.36
  L 840.34 73.41
  A 0.40 0.40 0.0 0 0 840.92 73.79
  L 846.42 70.99
  A 0.40 0.40 0.0 0 1 846.95 71.16
  L 849.83 76.56
  A 0.40 0.40 0.0 0 0 850.54 76.57
  L 853.59 71.08
  A 0.40 0.40 0.0 0 1 854.14 70.93
  L 859.44 73.90
  A 0.40 0.40 0.0 0 0 860.04 73.53
  L 859.69 67.44
  A 0.40 0.40 0.0 0 1 860.05 67.02
  L 866.21 66.42
  A 0.40 0.40 0.0 0 0 866.49 65.78
  L 862.82 60.92
  A 0.40 0.40 0.0 0 1 862.90 60.36
  L 867.79 56.64
  A 0.40 0.40 0.0 0 0 867.70 55.95
  L 861.97 53.71
  Z"
/>
<path fill="#ffffff" d="
  M 788.91 46.09
  L 786.77 40.07
  A 0.34 0.34 0.0 0 1 787.16 39.63
  L 793.38 40.87
  A 0.34 0.34 0.0 0 0 793.78 40.61
  L 795.10 34.46
  A 0.34 0.34 0.0 0 1 795.67 34.29
  L 800.18 38.81
  A 0.34 0.34 0.0 0 0 800.66 38.80
  L 805.10 34.24
  A 0.34 0.34 0.0 0 1 805.68 34.40
  L 807.12 40.68
  A 0.34 0.34 0.0 0 0 807.53 40.94
  L 813.66 39.61
  A 0.34 0.34 0.0 0 1 814.05 40.06
  L 811.87 46.05
  A 0.34 0.34 0.0 0 0 812.08 46.49
  L 817.94 48.69
  A 0.34 0.34 0.0 0 1 818.03 49.27
  L 813.00 53.15
  A 0.34 0.34 0.0 0 0 812.94 53.63
  L 816.78 58.66
  A 0.34 0.34 0.0 0 1 816.54 59.20
  L 810.12 59.62
  A 0.34 0.34 0.0 0 0 809.81 59.98
  L 810.30 66.30
  A 0.34 0.34 0.0 0 1 809.80 66.62
  L 804.22 63.69
  A 0.34 0.34 0.0 0 0 803.77 63.83
  L 800.66 69.33
  A 0.34 0.34 0.0 0 1 800.07 69.32
  L 797.06 63.79
  A 0.34 0.34 0.0 0 0 796.60 63.65
  L 791.11 66.56
  A 0.34 0.34 0.0 0 1 790.61 66.24
  L 790.81 59.92
  A 0.34 0.34 0.0 0 0 790.49 59.57
  L 784.22 59.21
  A 0.34 0.34 0.0 0 1 783.97 58.66
  L 787.88 53.63
  A 0.34 0.34 0.0 0 0 787.82 53.15
  L 782.69 49.23
  A 0.34 0.34 0.0 0 1 782.78 48.64
  L 788.70 46.52
  A 0.34 0.34 0.0 0 0 788.91 46.09
  Z
  M 806.11 51.90
  A 5.61 5.61 0.0 0 0 800.50 46.29
  A 5.61 5.61 0.0 0 0 794.89 51.90
  A 5.61 5.61 0.0 0 0 800.50 57.51
  A 5.61 5.61 0.0 0 0 806.11 51.90
  Z"
/>
<path fill="#ffffff" d="
  M 761.80 53.77
  L 767.70 55.96
  A 0.35 0.35 0.0 0 1 767.79 56.57
  L 762.70 60.34
  A 0.35 0.35 0.0 0 0 762.63 60.83
  L 766.39 65.90
  A 0.35 0.35 0.0 0 1 766.14 66.46
  L 759.87 66.93
  A 0.35 0.35 0.0 0 0 759.55 67.30
  L 759.94 73.54
  A 0.35 0.35 0.0 0 1 759.43 73.87
  L 753.83 70.96
  A 0.35 0.35 0.0 0 0 753.36 71.11
  L 750.45 76.56
  A 0.35 0.35 0.0 0 1 749.84 76.57
  L 746.71 71.06
  A 0.35 0.35 0.0 0 0 746.24 70.92
  L 740.77 73.91
  A 0.35 0.35 0.0 0 1 740.26 73.58
  L 740.61 67.22
  A 0.35 0.35 0.0 0 0 740.28 66.85
  L 734.00 66.46
  A 0.35 0.35 0.0 0 1 733.74 65.90
  L 737.55 60.79
  A 0.35 0.35 0.0 0 0 737.48 60.30
  L 732.36 56.54
  A 0.35 0.35 0.0 0 1 732.45 55.93
  L 738.36 53.79
  A 0.35 0.35 0.0 0 0 738.58 53.34
  L 736.49 47.38
  A 0.35 0.35 0.0 0 1 736.89 46.92
  L 742.98 48.22
  A 0.35 0.35 0.0 0 0 743.40 47.95
  L 744.78 41.97
  A 0.35 0.35 0.0 0 1 745.36 41.79
  L 749.91 45.99
  A 0.35 0.35 0.0 0 0 750.40 45.98
  L 754.80 41.57
  A 0.35 0.35 0.0 0 1 755.39 41.74
  L 756.77 47.97
  A 0.35 0.35 0.0 0 0 757.18 48.24
  L 763.33 46.94
  A 0.35 0.35 0.0 0 1 763.73 47.40
  L 761.60 53.32
  A 0.35 0.35 0.0 0 0 761.80 53.77
  Z
  M 755.70 59.16
  A 5.60 5.60 0.0 0 0 750.10 53.56
  A 5.60 5.60 0.0 0 0 744.50 59.16
  A 5.60 5.60 0.0 0 0 750.10 64.76
  A 5.60 5.60 0.0 0 0 755.70 59.16
  Z"
/>
<path fill="#ffffff" d="
  M 861.97 53.71
  L 867.70 55.95
  A 0.40 0.40 0.0 0 1 867.79 56.64
  L 862.90 60.36
  A 0.40 0.40 0.0 0 0 862.82 60.92
  L 866.49 65.78
  A 0.40 0.40 0.0 0 1 866.21 66.42
  L 860.05 67.02
  A 0.40 0.40 0.0 0 0 859.69 67.44
  L 860.04 73.53
  A 0.40 0.40 0.0 0 1 859.44 73.90
  L 854.14 70.93
  A 0.40 0.40 0.0 0 0 853.59 71.08
  L 850.54 76.57
  A 0.40 0.40 0.0 0 1 849.83 76.56
  L 846.95 71.16
  A 0.40 0.40 0.0 0 0 846.42 70.99
  L 840.92 73.79
  A 0.40 0.40 0.0 0 1 840.34 73.41
  L 840.75 67.36
  A 0.40 0.40 0.0 0 0 840.39 66.94
  L 834.25 66.42
  A 0.40 0.40 0.0 0 1 833.96 65.79
  L 837.58 60.84
  A 0.40 0.40 0.0 0 0 837.50 60.28
  L 832.58 56.58
  A 0.40 0.40 0.0 0 1 832.68 55.88
  L 838.49 53.70
  A 0.40 0.40 0.0 0 0 838.72 53.19
  L 836.63 47.52
  A 0.40 0.40 0.0 0 1 837.08 46.99
  L 843.15 48.19
  A 0.40 0.40 0.0 0 0 843.62 47.88
  L 844.89 41.92
  A 0.40 0.40 0.0 0 1 845.56 41.71
  L 849.98 46.01
  A 0.40 0.40 0.0 0 0 850.55 46.00
  L 854.83 41.57
  A 0.40 0.40 0.0 0 1 855.50 41.76
  L 856.87 47.83
  A 0.40 0.40 0.0 0 0 857.34 48.14
  L 863.34 46.99
  A 0.40 0.40 0.0 0 1 863.79 47.52
  L 861.74 53.20
  A 0.40 0.40 0.0 0 0 861.97 53.71
  Z
  M 855.81 59.16
  A 5.61 5.61 0.0 0 0 850.20 53.55
  A 5.61 5.61 0.0 0 0 844.59 59.16
  A 5.61 5.61 0.0 0 0 850.20 64.77
  A 5.61 5.61 0.0 0 0 855.81 59.16
  Z"
/>
<circle fill="#dead31" cx="800.50" cy="51.90" r="5.61"/>
<path fill="#8fa75b" d="
  M 726.00 53.21
  Q 720.96 54.42 725.75 57.46
  C 722.24 56.63 718.28 55.38 714.68 55.56
  C 708.19 55.90 705.12 60.48 710.75 65.24
  C 713.61 67.66 719.45 71.08 719.30 75.23
  A 1.12 1.05 -26.7 0 1 719.09 75.80
  C 711.79 85.34 690.68 84.41 680.56 83.20
  C 672.74 82.26 657.11 79.48 656.22 70.06
  A 0.98 0.92 58.7 0 1 656.34 69.49
  Q 660.02 62.68 667.43 65.50
  C 668.68 65.98 669.94 65.72 669.01 64.00
  C 661.69 50.43 640.14 52.42 639.97 69.21
  C 639.89 77.23 629.80 73.95 625.77 71.73
  C 620.48 68.81 615.16 65.14 609.70 63.53
  Q 595.93 59.45 582.38 64.19
  C 573.17 67.41 568.04 74.27 557.56 74.19
  Q 554.34 74.17 554.12 70.96
  C 553.67 64.36 552.55 59.02 545.65 56.41
  Q 532.24 51.35 524.66 64.28
  A 0.99 0.99 0.0 0 0 524.69 65.34
  Q 525.13 65.99 525.94 65.67
  Q 532.23 63.22 536.25 67.30
  C 541.49 72.63 531.04 78.82 527.18 80.16
  C 513.64 84.87 494.62 85.44 481.04 80.78
  Q 478.28 79.83 476.28 77.70
  C 468.71 69.63 491.35 65.83 485.03 57.76
  C 482.27 54.24 473.71 55.71 470.23 57.00
  C 463.23 59.60 453.87 65.96 445.55 66.51
  C 436.89 67.07 429.55 60.89 421.13 61.08
  C 411.52 61.30 405.26 67.83 396.30 68.96
  C 384.32 70.47 375.27 58.38 364.55 61.56
  Q 361.09 62.59 354.49 65.44
  C 337.43 72.82 323.17 52.96 306.83 55.79
  C 301.37 56.74 300.91 61.91 304.77 65.03
  Q 308.88 68.35 312.48 71.55
  Q 315.08 73.87 312.83 76.52
  C 303.86 87.07 275.29 84.17 263.69 81.07
  C 259.47 79.94 248.55 74.83 251.09 68.88
  C 252.91 64.64 258.26 63.86 262.23 65.71
  Q 264.93 66.96 263.53 64.33
  C 255.72 49.57 232.91 52.84 234.32 70.99
  A 0.94 0.93 57.3 0 1 234.20 71.55
  C 229.44 80.10 212.82 66.62 206.16 64.29
  Q 185.15 56.96 166.20 69.74
  C 162.19 72.44 147.93 78.93 148.21 68.76
  C 148.40 61.93 144.03 57.15 137.47 55.57
  Q 126.25 52.87 119.35 63.57
  Q 118.62 64.70 119.25 65.47
  A 0.80 0.79 -32.2 0 0 120.20 65.68
  C 127.66 62.22 137.37 69.16 128.07 76.35
  C 116.32 85.46 93.74 84.75 80.83 82.37
  C 77.01 81.66 68.11 78.65 69.26 73.57
  C 70.44 68.39 85.02 63.51 79.25 57.68
  C 75.13 53.51 65.32 56.37 60.71 58.51
  C 53.17 62.00 46.57 66.30 39.39 66.51
  C 30.27 66.79 21.40 59.57 12.74 60.98
  Q 10.36 61.36 0.79 64.87
  L 0.65 61.76
  A 0.99 0.98 73.6 0 1 1.13 60.86
  Q 9.54 55.82 18.93 57.00
  C 26.12 57.91 33.10 62.90 40.34 62.20
  C 47.07 61.54 55.61 56.13 60.71 53.95
  C 66.62 51.42 76.94 49.52 82.23 54.04
  C 86.89 58.03 85.48 64.86 80.64 68.63
  Q 77.55 71.03 74.54 73.54
  A 1.00 0.99 -44.3 0 0 74.52 75.06
  Q 76.22 76.53 78.75 77.27
  C 90.95 80.83 118.54 81.53 127.39 71.38
  A 1.00 1.00 0.0 0 0 127.43 70.11
  C 126.01 68.26 122.96 69.14 121.29 70.06
  A 1.01 1.00 -55.5 0 1 120.65 70.18
  Q 111.63 68.83 116.18 60.97
  C 125.70 44.54 151.94 48.35 153.00 68.86
  A 0.99 0.99 0.0 0 0 153.98 69.81
  Q 157.10 69.84 159.47 68.72
  C 168.02 64.67 175.08 58.32 186.67 57.61
  Q 191.19 57.33 195.73 57.51
  C 205.32 57.90 213.41 62.49 221.69 67.85
  Q 224.50 69.66 229.12 69.86
  A 1.00 1.00 0.0 0 0 230.16 68.89
  Q 230.44 60.78 235.60 55.94
  C 244.91 47.21 259.54 49.68 266.54 60.40
  C 269.07 64.26 269.19 69.23 263.57 69.98
  C 261.36 70.28 256.96 67.52 255.50 70.29
  A 1.01 1.01 0.0 0 0 255.69 71.47
  C 265.89 81.57 289.47 80.45 302.20 77.75
  Q 305.64 77.02 308.55 75.37
  A 0.99 0.99 0.0 0 0 308.71 73.75
  Q 305.58 71.05 302.35 68.48
  C 294.34 62.10 298.09 52.83 307.42 51.43
  C 316.57 50.06 329.38 56.49 338.23 61.05
  C 351.93 68.10 360.88 52.81 375.13 57.97
  Q 380.91 60.06 386.43 62.78
  C 395.94 67.46 402.33 62.63 410.73 58.92
  C 421.35 54.24 429.19 58.15 439.06 61.27
  C 443.39 62.63 448.50 62.63 452.19 60.69
  C 461.42 55.84 471.92 50.26 482.49 51.51
  C 488.65 52.23 492.71 58.98 489.83 64.55
  C 488.14 67.83 483.34 70.98 480.09 73.62
  A 1.01 1.01 0.0 0 0 480.13 75.21
  Q 481.15 75.96 482.39 76.63
  Q 483.61 77.29 485.21 77.65
  C 497.25 80.33 524.82 81.73 533.05 71.23
  A 1.00 1.00 0.0 0 0 532.95 69.88
  Q 531.29 68.33 529.50 69.03
  C 525.81 70.44 520.94 70.51 520.56 65.33
  C 520.17 59.87 528.49 53.16 532.73 51.73
  C 544.76 47.68 558.81 55.25 558.50 68.99
  A 1.00 0.99 -3.0 0 0 559.63 70.00
  C 563.66 69.46 566.49 68.32 570.17 65.83
  C 581.33 58.29 595.50 54.93 609.45 58.80
  C 617.64 61.08 623.75 66.21 629.81 68.93
  Q 631.61 69.74 634.88 69.90
  A 1.00 1.00 0.0 0 0 635.93 68.94
  Q 636.29 59.14 643.12 54.39
  C 652.70 47.71 665.81 50.23 672.27 60.37
  C 675.34 65.18 674.26 70.02 667.70 70.12
  A 1.03 1.01 -28.2 0 1 667.15 69.96
  Q 664.34 68.15 661.74 69.73
  A 1.01 1.00 -31.2 0 0 661.40 71.10
  Q 662.63 73.12 664.68 74.33
  C 675.85 80.94 703.06 81.79 714.34 75.29
  A 1.00 0.99 -40.9 0 0 714.46 73.64
  C 710.03 70.17 703.02 66.24 703.82 59.60
  C 705.07 49.23 719.19 50.49 726.00 53.21
  Z"
/>
<path fill="#8fa75b" d="
  M 1599.00 60.81
  L 1599.00 65.56
  Q 1594.26 62.97 1589.06 61.58
  C 1581.83 59.65 1574.81 64.48 1569.69 66.26
  Q 1562.33 68.81 1554.63 65.44
  C 1548.01 62.54 1525.95 50.23 1520.02 58.05
  C 1514.33 65.57 1535.43 69.47 1529.39 76.89
  C 1522.36 85.53 1499.90 84.26 1489.86 82.91
  C 1482.16 81.87 1476.05 80.47 1470.64 75.59
  C 1462.73 68.45 1472.69 62.49 1479.32 65.71
  Q 1480.25 66.16 1480.64 65.25
  A 1.00 1.00 0.0 0 0 1480.62 64.40
  Q 1474.83 52.99 1462.28 55.47
  Q 1454.16 57.07 1451.83 64.99
  C 1450.82 68.44 1452.59 74.38 1446.74 74.24
  C 1436.91 73.99 1431.00 66.79 1422.19 63.90
  Q 1405.96 58.58 1390.30 65.60
  C 1386.74 67.20 1364.93 82.34 1365.26 69.01
  C 1365.46 60.95 1360.02 56.10 1352.32 55.20
  Q 1341.94 53.99 1336.24 63.99
  C 1335.79 64.79 1335.89 66.22 1337.18 65.72
  C 1341.02 64.21 1345.45 64.27 1348.04 67.68
  C 1351.66 72.45 1343.21 78.80 1339.77 79.88
  C 1326.92 83.90 1300.63 87.16 1288.95 78.77
  C 1279.37 71.88 1296.38 67.15 1297.51 60.95
  C 1298.54 55.31 1289.63 55.16 1285.73 55.93
  C 1275.08 58.06 1266.83 65.99 1255.53 66.43
  C 1246.25 66.79 1237.57 58.81 1228.06 61.30
  C 1220.92 63.16 1212.81 69.49 1204.16 69.06
  C 1198.53 68.77 1192.13 65.03 1186.66 62.60
  C 1178.92 59.16 1173.98 62.15 1165.66 65.71
  C 1157.80 69.08 1151.98 66.55 1144.53 63.38
  C 1138.72 60.90 1118.07 50.02 1113.86 58.81
  C 1111.09 64.57 1122.28 67.92 1124.57 72.64
  C 1126.27 76.16 1121.56 79.62 1118.68 80.67
  C 1104.94 85.67 1077.10 85.91 1064.75 75.55
  C 1057.14 69.17 1066.42 62.76 1073.22 65.53
  C 1074.97 66.25 1075.51 65.11 1074.66 63.73
  Q 1066.56 50.59 1051.77 57.26
  C 1046.99 59.41 1045.96 65.67 1045.48 70.59
  Q 1045.12 74.25 1041.44 74.20
  C 1031.59 74.07 1026.84 67.88 1018.22 64.58
  C 1004.42 59.28 991.03 61.23 978.45 69.10
  C 974.60 71.51 959.72 79.62 959.64 69.17
  C 959.51 52.18 937.19 50.32 930.30 64.70
  A 0.51 0.51 0.0 0 0 930.52 65.37
  L 930.84 65.54
  A 0.97 0.95 47.0 0 0 931.69 65.58
  Q 936.88 63.41 940.91 66.41
  C 948.95 72.39 935.36 79.57 930.88 80.80
  Q 912.25 85.93 892.98 82.57
  C 887.88 81.68 874.86 77.12 883.20 70.01
  C 885.78 67.81 890.52 64.82 891.54 61.97
  C 894.64 53.28 878.74 55.91 875.29 57.00
  C 875.57 55.95 876.85 55.45 876.98 54.79
  A 0.65 0.64 -86.5 0 0 876.31 54.02
  Q 875.01 54.12 875.18 53.10
  Q 882.37 50.10 889.47 51.98
  C 895.79 53.66 898.49 60.36 894.72 65.84
  C 892.91 68.48 889.08 70.84 886.52 73.01
  Q 884.22 74.96 887.01 76.11
  C 899.84 81.42 920.27 80.51 933.51 75.60
  Q 936.39 74.53 938.82 71.11
  A 1.00 1.00 0.0 0 0 938.52 69.67
  Q 936.03 68.17 933.31 69.87
  Q 933.10 70.00 932.86 70.01
  C 927.42 70.41 924.52 66.43 927.15 61.71
  C 934.15 49.15 952.01 46.36 960.75 58.05
  Q 964.17 62.63 964.33 68.86
  A 1.00 0.99 87.2 0 0 965.39 69.83
  Q 970.41 69.53 972.49 68.03
  Q 980.80 62.05 990.44 58.99
  C 996.16 57.17 1002.17 57.29 1008.19 57.58
  C 1018.17 58.05 1027.17 64.19 1035.53 68.99
  Q 1037.15 69.92 1040.59 69.78
  A 1.00 1.00 0.0 0 0 1041.55 68.81
  C 1041.81 59.36 1047.44 53.06 1056.71 51.23
  Q 1071.94 48.23 1080.10 64.09
  A 1.02 1.00 -50.1 0 1 1080.16 64.84
  C 1077.02 75.03 1069.56 65.99 1067.00 70.33
  A 1.00 0.99 37.7 0 0 1067.16 71.55
  C 1072.42 76.77 1077.98 77.68 1086.08 78.81
  C 1095.69 80.14 1111.52 80.63 1120.04 75.21
  A 1.00 1.00 0.0 0 0 1120.11 73.57
  C 1116.47 70.79 1109.80 66.92 1109.44 61.07
  C 1109.04 54.65 1114.58 51.51 1120.30 51.24
  C 1132.00 50.70 1141.86 58.52 1152.36 62.02
  C 1164.40 66.04 1172.38 54.36 1184.69 57.30
  C 1192.98 59.28 1201.79 67.78 1211.36 63.65
  C 1220.69 59.63 1229.52 54.30 1239.94 57.82
  C 1247.73 60.45 1255.05 64.48 1263.83 60.41
  C 1271.71 56.75 1278.63 52.56 1287.91 51.43
  C 1294.13 50.67 1300.78 52.45 1301.99 59.34
  C 1303.17 65.99 1295.96 70.01 1291.45 73.60
  A 1.01 1.00 -48.2 0 0 1291.54 75.23
  C 1302.72 82.29 1335.39 81.16 1344.42 71.47
  A 1.01 1.00 54.6 0 0 1344.60 70.39
  C 1342.83 66.27 1334.82 73.86 1332.17 66.64
  C 1330.27 61.48 1338.14 54.61 1341.97 52.74
  Q 1347.48 50.06 1354.25 51.06
  Q 1368.36 53.16 1370.22 68.99
  A 1.00 0.99 84.1 0 0 1371.30 69.87
  Q 1376.23 69.43 1378.08 68.11
  Q 1387.99 60.99 1399.82 57.85
  Q 1402.39 57.16 1414.26 57.48
  C 1422.41 57.70 1431.07 63.11 1440.22 68.55
  Q 1442.16 69.69 1446.15 69.85
  A 1.01 1.01 0.0 0 0 1447.19 68.88
  Q 1447.45 61.21 1452.20 56.36
  C 1462.35 45.99 1478.46 50.32 1485.00 62.81
  C 1487.28 67.15 1482.15 71.24 1477.94 69.64
  C 1475.85 68.85 1474.50 68.59 1472.83 69.84
  A 1.00 0.99 50.3 0 0 1472.70 71.32
  C 1482.26 81.64 1506.97 80.35 1519.40 77.73
  Q 1522.75 77.02 1525.66 75.27
  A 1.01 1.00 49.8 0 0 1525.79 73.65
  Q 1523.16 71.41 1520.42 69.32
  C 1517.16 66.84 1515.03 64.54 1515.17 60.23
  C 1515.52 49.22 1529.75 50.82 1536.73 52.95
  C 1547.30 56.19 1558.25 64.55 1566.48 62.81
  C 1571.41 61.77 1577.45 57.76 1581.51 57.16
  Q 1590.93 55.78 1599.00 60.81
  Z"
/>
<circle fill="#dead31" cx="750.10" cy="59.16" r="5.60"/>
<circle fill="#dead31" cx="850.20" cy="59.16" r="5.61"/>
<path fill="#60713a" d="
  M 725.75 57.46
  L 730.53 60.68
  A 0.99 0.99 0.0 0 1 730.77 62.10
  L 725.89 68.69
  Q 724.81 70.15 726.63 70.28
  L 734.84 70.85
  A 1.00 0.99 -86.0 0 1 735.76 71.92
  L 735.18 80.20
  Q 735.06 82.02 736.66 81.15
  L 743.87 77.23
  A 1.00 1.00 0.0 0 1 745.22 77.62
  L 749.26 84.85
  Q 750.14 86.43 751.01 84.84
  L 754.93 77.62
  A 1.00 0.99 28.2 0 1 756.28 77.22
  L 763.47 81.10
  Q 765.04 81.95 764.94 80.16
  L 764.46 71.87
  A 0.99 0.99 0.0 0 1 765.39 70.82
  L 773.58 70.29
  Q 775.35 70.17 774.33 68.72
  L 769.29 61.50
  L 776.25 60.79
  Q 775.94 61.12 775.73 61.48
  A 1.00 1.00 0.0 0 0 776.51 62.98
  L 784.89 63.72
  A 1.00 1.00 0.0 0 1 785.80 64.79
  L 785.24 72.95
  Q 785.12 74.77 786.72 73.89
  L 793.91 69.96
  A 1.00 0.99 -29.0 0 1 795.26 70.34
  L 799.31 77.58
  Q 800.20 79.16 801.06 77.56
  L 804.97 70.34
  A 1.01 1.01 0.0 0 1 806.33 69.93
  L 813.52 73.83
  Q 815.08 74.68 814.99 72.90
  L 814.57 64.71
  A 1.00 0.99 -3.9 0 1 815.49 63.67
  L 824.07 62.95
  Q 825.52 62.82 824.64 61.66
  Q 824.47 61.44 824.21 61.25
  Q 827.25 60.45 830.97 61.15
  Q 828.92 65.21 826.12 68.67
  Q 824.91 70.15 826.82 70.29
  L 834.89 70.88
  A 0.99 0.99 0.0 0 1 835.81 71.93
  L 835.36 80.17
  Q 835.26 81.96 836.83 81.10
  L 843.97 77.20
  A 1.00 0.99 -29.0 0 1 845.32 77.58
  L 849.38 84.79
  Q 850.26 86.35 851.13 84.78
  L 855.05 77.65
  A 1.01 1.00 28.1 0 1 856.40 77.25
  L 863.68 81.13
  Q 865.27 81.98 865.14 80.17
  L 864.56 71.99
  A 1.00 1.00 0.0 0 1 865.48 70.92
  L 873.70 70.25
  Q 875.49 70.11 874.42 68.66
  L 869.60 62.15
  A 1.00 1.00 0.0 0 1 869.84 60.73
  L 875.29 57.00
  C 878.74 55.91 894.64 53.28 891.54 61.97
  C 890.52 64.82 885.78 67.81 883.20 70.01
  C 874.86 77.12 887.88 81.68 892.98 82.57
  Q 912.25 85.93 930.88 80.80
  C 935.36 79.57 948.95 72.39 940.91 66.41
  Q 936.88 63.41 931.69 65.58
  A 0.97 0.95 47.0 0 1 930.84 65.54
  L 930.52 65.37
  A 0.51 0.51 0.0 0 1 930.30 64.70
  C 937.19 50.32 959.51 52.18 959.64 69.17
  C 959.72 79.62 974.60 71.51 978.45 69.10
  C 991.03 61.23 1004.42 59.28 1018.22 64.58
  C 1026.84 67.88 1031.59 74.07 1041.44 74.20
  Q 1045.12 74.25 1045.48 70.59
  C 1045.96 65.67 1046.99 59.41 1051.77 57.26
  Q 1066.56 50.59 1074.66 63.73
  C 1075.51 65.11 1074.97 66.25 1073.22 65.53
  C 1066.42 62.76 1057.14 69.17 1064.75 75.55
  C 1077.10 85.91 1104.94 85.67 1118.68 80.67
  C 1121.56 79.62 1126.27 76.16 1124.57 72.64
  C 1122.28 67.92 1111.09 64.57 1113.86 58.81
  C 1118.07 50.02 1138.72 60.90 1144.53 63.38
  C 1151.98 66.55 1157.80 69.08 1165.66 65.71
  C 1173.98 62.15 1178.92 59.16 1186.66 62.60
  C 1192.13 65.03 1198.53 68.77 1204.16 69.06
  C 1212.81 69.49 1220.92 63.16 1228.06 61.30
  C 1237.57 58.81 1246.25 66.79 1255.53 66.43
  C 1266.83 65.99 1275.08 58.06 1285.73 55.93
  C 1289.63 55.16 1298.54 55.31 1297.51 60.95
  C 1296.38 67.15 1279.37 71.88 1288.95 78.77
  C 1300.63 87.16 1326.92 83.90 1339.77 79.88
  C 1343.21 78.80 1351.66 72.45 1348.04 67.68
  C 1345.45 64.27 1341.02 64.21 1337.18 65.72
  C 1335.89 66.22 1335.79 64.79 1336.24 63.99
  Q 1341.94 53.99 1352.32 55.20
  C 1360.02 56.10 1365.46 60.95 1365.26 69.01
  C 1364.93 82.34 1386.74 67.20 1390.30 65.60
  Q 1405.96 58.58 1422.19 63.90
  C 1431.00 66.79 1436.91 73.99 1446.74 74.24
  C 1452.59 74.38 1450.82 68.44 1451.83 64.99
  Q 1454.16 57.07 1462.28 55.47
  Q 1474.83 52.99 1480.62 64.40
  A 1.00 1.00 0.0 0 1 1480.64 65.25
  Q 1480.25 66.16 1479.32 65.71
  C 1472.69 62.49 1462.73 68.45 1470.64 75.59
  C 1476.05 80.47 1482.16 81.87 1489.86 82.91
  C 1499.90 84.26 1522.36 85.53 1529.39 76.89
  C 1535.43 69.47 1514.33 65.57 1520.02 58.05
  C 1525.95 50.23 1548.01 62.54 1554.63 65.44
  Q 1562.33 68.81 1569.69 66.26
  C 1574.81 64.48 1581.83 59.65 1589.06 61.58
  Q 1594.26 62.97 1599.00 65.56
  L 1599.00 120.56
  Q 803.64 120.44 8.28 120.52
  C 6.24 120.52 2.15 121.33 0.81 120.13
  A 1.01 1.00 20.9 0 1 0.47 119.38
  L 0.79 64.87
  Q 10.36 61.36 12.74 60.98
  C 21.40 59.57 30.27 66.79 39.39 66.51
  C 46.57 66.30 53.17 62.00 60.71 58.51
  C 65.32 56.37 75.13 53.51 79.25 57.68
  C 85.02 63.51 70.44 68.39 69.26 73.57
  C 68.11 78.65 77.01 81.66 80.83 82.37
  C 93.74 84.75 116.32 85.46 128.07 76.35
  C 137.37 69.16 127.66 62.22 120.20 65.68
  A 0.80 0.79 -32.2 0 1 119.25 65.47
  Q 118.62 64.70 119.35 63.57
  Q 126.25 52.87 137.47 55.57
  C 144.03 57.15 148.40 61.93 148.21 68.76
  C 147.93 78.93 162.19 72.44 166.20 69.74
  Q 185.15 56.96 206.16 64.29
  C 212.82 66.62 229.44 80.10 234.20 71.55
  A 0.94 0.93 57.3 0 0 234.32 70.99
  C 232.91 52.84 255.72 49.57 263.53 64.33
  Q 264.93 66.96 262.23 65.71
  C 258.26 63.86 252.91 64.64 251.09 68.88
  C 248.55 74.83 259.47 79.94 263.69 81.07
  C 275.29 84.17 303.86 87.07 312.83 76.52
  Q 315.08 73.87 312.48 71.55
  Q 308.88 68.35 304.77 65.03
  C 300.91 61.91 301.37 56.74 306.83 55.79
  C 323.17 52.96 337.43 72.82 354.49 65.44
  Q 361.09 62.59 364.55 61.56
  C 375.27 58.38 384.32 70.47 396.30 68.96
  C 405.26 67.83 411.52 61.30 421.13 61.08
  C 429.55 60.89 436.89 67.07 445.55 66.51
  C 453.87 65.96 463.23 59.60 470.23 57.00
  C 473.71 55.71 482.27 54.24 485.03 57.76
  C 491.35 65.83 468.71 69.63 476.28 77.70
  Q 478.28 79.83 481.04 80.78
  C 494.62 85.44 513.64 84.87 527.18 80.16
  C 531.04 78.82 541.49 72.63 536.25 67.30
  Q 532.23 63.22 525.94 65.67
  Q 525.13 65.99 524.69 65.34
  A 0.99 0.99 0.0 0 1 524.66 64.28
  Q 532.24 51.35 545.65 56.41
  C 552.55 59.02 553.67 64.36 554.12 70.96
  Q 554.34 74.17 557.56 74.19
  C 568.04 74.27 573.17 67.41 582.38 64.19
  Q 595.93 59.45 609.70 63.53
  C 615.16 65.14 620.48 68.81 625.77 71.73
  C 629.80 73.95 639.89 77.23 639.97 69.21
  C 640.14 52.42 661.69 50.43 669.01 64.00
  C 669.94 65.72 668.68 65.98 667.43 65.50
  Q 660.02 62.68 656.34 69.49
  A 0.98 0.92 58.7 0 0 656.22 70.06
  C 657.11 79.48 672.74 82.26 680.56 83.20
  C 690.68 84.41 711.79 85.34 719.09 75.80
  A 1.12 1.05 -26.7 0 0 719.30 75.23
  C 719.45 71.08 713.61 67.66 710.75 65.24
  C 705.12 60.48 708.19 55.90 714.68 55.56
  C 718.28 55.38 722.24 56.63 725.75 57.46
  Z"
/>
<path fill="#8fa75b" d="
  M 824.79 56.50
  L 830.97 61.15
  Q 827.25 60.45 824.21 61.25
  L 821.50 57.29
  L 824.79 56.50
  Z"
/>
<path fill="#8fa75b" d="
  M 775.25 56.71
  L 778.50 57.29
  Q 777.94 59.37 776.25 60.79
  L 769.29 61.50
  Q 771.69 58.41 775.25 56.71
  Z"
/>
</svg>
