<?xml version="1.0" standalone="no"?>
<!DOCTYPE svg PUBLIC "-//W3C//DTD SVG 20010904//EN"
 "http://www.w3.org/TR/2001/REC-SVG-20010904/DTD/svg10.dtd">
<svg version="1.0" xmlns="http://www.w3.org/2000/svg"
 width="143.000000pt" height="66.000000pt" viewBox="0 0 143.000000 66.000000"
 preserveAspectRatio="xMidYMid meet">

<g transform="translate(0.000000,66.000000) scale(0.100000,-0.100000)"
fill="#000000" stroke="none">
<path d="M691 624 c-19 -24 -20 -29 -6 -44 8 -9 15 -23 15 -31 -1 -11 -4 -10
-14 4 -14 18 -42 22 -71 11 -12 -5 -3 -11 32 -23 l48 -16 3 -62 c3 -59 1 -63
-18 -63 -20 0 -22 4 -18 50 1 28 0 50 -4 50 -12 0 -9 -98 2 -105 11 -7 14 -75
4 -75 -3 0 -13 10 -23 21 -17 21 -17 21 -54 -32 -20 -30 -37 -58 -37 -62 0 -4
16 -7 35 -7 35 0 49 16 20 22 -14 3 -14 6 1 26 l16 23 24 -35 c41 -60 54 -49
54 45 0 51 4 78 10 74 6 -3 10 -40 10 -81 l0 -74 81 0 c71 0 80 2 69 15 -14
17 -40 20 -40 5 0 -5 -18 -10 -40 -10 -38 0 -40 2 -40 30 0 28 2 30 41 30 24
0 38 4 34 10 -3 6 -22 10 -41 10 -30 0 -34 3 -34 25 0 16 6 25 16 25 8 0 12 5
9 10 -3 6 -20 10 -36 10 l-30 0 2 56 c2 54 4 57 37 71 26 11 41 12 65 4 39
-14 44 -14 29 1 -7 7 -32 17 -55 23 -37 9 -44 8 -59 -10 -17 -20 -17 -20 -18
2 0 12 5 25 10 28 12 8 13 45 1 63 -6 11 -13 7 -30 -14z"/>
<path d="M753 455 c0 -27 2 -38 4 -22 2 15 2 37 0 50 -2 12 -4 0 -4 -28z"/>
<path d="M222 60 c1 -45 1 -45 8 -10 4 19 8 31 9 25 1 -5 10 -21 21 -35 l20
-25 -2 45 c-1 32 -2 37 -5 16 l-5 -29 -23 29 -24 29 1 -45z"/>
<path d="M568 88 c-2 -7 -1 -26 3 -43 6 -28 7 -26 8 13 1 42 -3 53 -11 30z"/>
<path d="M632 63 c2 -31 7 -38 26 -39 18 -1 19 -1 2 3 -25 5 -26 30 -2 36 15
4 15 5 -2 6 -12 1 -16 6 -12 16 3 8 1 15 -5 15 -6 0 -9 -16 -7 -37z"/>
<path d="M766 92 c-2 -4 -1 -23 4 -42 l8 -35 1 43 c1 41 -3 50 -13 34z"/>
<path d="M307 73 c-4 -3 -7 -14 -7 -24 0 -20 37 -36 51 -22 6 6 1 9 -13 9 -18
-1 -23 4 -22 22 1 24 0 25 -9 15z"/>
<path d="M346 67 c3 -10 9 -15 12 -12 3 3 0 11 -7 18 -10 9 -11 8 -5 -6z"/>
<path d="M380 69 c0 -5 5 -7 10 -4 6 3 10 8 10 11 0 2 -4 4 -10 4 -5 0 -10 -5
-10 -11z"/>
<path d="M418 50 c2 -17 5 -30 7 -30 2 0 5 13 7 30 3 19 0 30 -7 30 -7 0 -10
-11 -7 -30z"/>
<path d="M459 48 c4 -28 6 -29 9 -9 2 13 0 27 -5 32 -6 6 -7 -3 -4 -23z"/>
<path d="M486 64 c-5 -14 -4 -15 9 -4 17 14 19 20 6 20 -5 0 -12 -7 -15 -16z"/>
<path d="M529 71 c21 -13 5 -44 -19 -38 -11 3 -18 1 -15 -4 4 -5 17 -8 30 -7
20 2 25 8 25 30 0 20 -5 28 -17 28 -15 0 -15 -2 -4 -9z"/>
<path d="M690 55 c0 -32 6 -32 12 0 3 14 1 25 -3 25 -5 0 -9 -11 -9 -25z"/>
<path d="M739 48 c4 -28 6 -29 9 -9 2 13 0 27 -5 32 -6 6 -7 -3 -4 -23z"/>
<path d="M797 68 c-10 -30 32 -64 47 -39 4 5 -4 7 -15 4 -19 -5 -21 -3 -17 20
5 27 -6 38 -15 15z"/>
<path d="M836 65 c4 -8 10 -15 15 -15 4 0 6 7 3 15 -4 8 -10 15 -15 15 -4 0
-6 -7 -3 -15z"/>
<path d="M870 50 c0 -16 2 -30 4 -30 2 0 6 13 8 30 3 17 1 30 -4 30 -4 0 -8
-13 -8 -30z"/>
<path d="M911 38 c0 -24 3 -36 7 -28 4 8 16 15 26 15 11 0 20 6 22 13 1 7 0 8
-3 2 -7 -16 -33 -12 -40 6 -3 9 0 20 8 25 11 7 11 9 -3 9 -15 0 -18 -8 -17
-42z"/>
<path d="M955 70 c3 -5 8 -10 11 -10 2 0 4 5 4 10 0 6 -5 10 -11 10 -5 0 -7
-4 -4 -10z"/>
<path d="M990 50 c0 -16 2 -30 4 -30 2 0 6 13 8 30 3 17 1 30 -4 30 -4 0 -8
-13 -8 -30z"/>
<path d="M1032 50 c0 -19 2 -27 5 -17 2 9 2 25 0 35 -3 9 -5 1 -5 -18z"/>
<path d="M1055 70 c-3 -6 1 -13 9 -16 9 -3 16 -11 16 -16 0 -6 -8 -7 -17 -3
-15 5 -16 4 -5 -6 10 -11 14 -11 25 0 10 10 9 15 -5 25 -10 7 -15 16 -11 19 3
4 4 7 0 7 -3 0 -9 -5 -12 -10z"/>
<path d="M1104 65 c-11 -28 35 -61 50 -37 3 5 -5 8 -17 8 -23 -1 -31 23 -12
36 6 5 5 8 -3 8 -7 0 -15 -7 -18 -15z"/>
<path d="M1146 67 c3 -10 9 -15 12 -12 3 3 0 11 -7 18 -10 9 -11 8 -5 -6z"/>
<path d="M1180 67 c0 -9 5 -17 10 -17 6 0 10 -5 10 -11 0 -6 -7 -8 -16 -5 -8
3 -12 2 -9 -4 9 -14 35 -12 35 3 0 6 -7 21 -15 31 -13 17 -15 18 -15 3z"/>
</g>
</svg>
