<?xml version="1.0" encoding="UTF-8"?><svg id="Layer_2" xmlns="http://www.w3.org/2000/svg" viewBox="0 0 786.92 373.6"><defs><style>.cls-1{fill:#932904;stroke-width:0px;}</style></defs><g id="Layer_1-2"><path class="cls-1" d="m33.2,342.42v.03s0,0,.02-.05.02-.21.03-.48c.01-.27.02-.64.02-1.1s0-1.17.02-2.1c.01-.93.02-2.02.03-3.27.01-1.25.02-2.84.02-4.79v-6.54c0-2.88-.71-5.16-2.12-6.82l.59-1.34c.31-.21.93-.41,1.87-.61.93-.2,1.73-.29,2.4-.29,1.24,0,2.2.26,2.86.78-.5,11.29-.75,21.38-.75,30.28,0,4.79.1,8.85.31,12.17h-5.54l-23.71-26.14-1.15-1.77c-.79-1.18-1.28-2.01-1.46-2.49.12.73.19,1.76.19,3.11,0,1.04-.02,2.52-.06,4.45-.04,1.93-.06,3.42-.06,4.48,0,8.9.21,15.02.62,18.36H1.71v-1.03c.04-5.52.06-13.1.06-22.75v-10.64c0-1.66-.12-2.95-.37-3.86-.25-.91-.72-1.81-1.4-2.71l.5-1.34c.48-.31,1.36-.57,2.65-.78,1.29-.21,2.43-.25,3.42-.12,1.31,1.58,5.49,6.27,12.54,14.08,7.05,7.81,11.05,12.21,11.98,13.21.56.6,1.13,1.58,1.71,2.93l.9,2.05-.25-2.05c-.17-1.35-.25-2.3-.25-2.86Z"/><path class="cls-1" d="m73.91,340.52l-.56.25c-1.06.42-2.49.62-4.29.62l-14.13-.19c.04.48.06,1.27.06,2.37.08,3.09,1.01,5.52,2.79,7.28,1.77,1.76,3.75,2.65,5.93,2.65,1.87,0,3.76-.44,5.68-1.31,1.92-.87,3.6-2.39,5.06-4.54.35,1.35.35,2.64,0,3.87-.35,1.23-.97,2.3-1.85,3.21s-1.94,1.69-3.19,2.37c-1.25.67-2.59,1.18-4.05,1.53-1.45.34-2.92.51-4.39.51-1.89,0-3.65-.29-5.27-.89-1.63-.59-3.11-1.48-4.43-2.68s-2.38-2.8-3.16-4.81c-.78-2.01-1.18-4.33-1.2-6.94,0-3.42.59-6.52,1.76-9.3,1.17-2.78,2.86-4.98,5.07-6.61,2.21-1.63,4.73-2.44,7.58-2.44,1.66,0,3.16.2,4.5.61,1.34.41,2.44.91,3.3,1.53.86.61,1.61,1.36,2.24,2.26.63.89,1.11,1.73,1.43,2.52.32.79.57,1.67.75,2.63s.29,1.73.33,2.3c.04.57.06,1.16.06,1.76v1.46Zm-13.01-11.17c-.85,0-1.61.23-2.27.68-.66.46-1.22,1.13-1.68,2.01-.46.88-.83,1.8-1.14,2.77s-.58,2.1-.82,3.41c1.22-.02,3.07-.08,5.54-.19,2.47-.1,4.38-.17,5.73-.19-.02-1.02-.14-2.01-.34-2.97-.21-.96-.52-1.87-.93-2.72-.42-.85-.98-1.53-1.68-2.04-.71-.51-1.5-.76-2.4-.76Z"/><path class="cls-1" d="m110.79,358.29h-8.65l-.09-.68c-.06-.46-.09-.91-.09-1.37,0-1.66.02-4.4.06-8.23.04-3.83.06-6.58.06-8.26.04-3.05-.22-5.25-.78-6.61-.56-1.36-1.58-2.04-3.05-2.04-1.66,0-3.08.28-4.25.84-1.17.56-2.29,1.32-3.35,2.27,0,10.1.06,16.45.19,19.05.17,2.26.34,3.94.53,5.04h-8.93l.06-1.96.25-19.76c.02-1.64-.14-3.03-.48-4.19-.34-1.15-.72-1.95-1.12-2.4-.4-.45-.78-.74-1.14-.89l-.5-.25v-1.15c2.43-1.49,4.72-2.24,6.88-2.24,1.22,0,2.2.34,2.93,1.01.73.67,1.19,1.53,1.4,2.57l-.06,1.77c3.67-3.78,7.22-5.66,10.64-5.66,2.12,0,3.92.55,5.4,1.65,1.48,1.1,2.49,2.53,3.03,4.29,1.1-1.45,2.65-2.81,4.64-4.06,1.99-1.25,3.99-1.88,6.01-1.88,2.59,0,4.7.81,6.32,2.43s2.46,3.61,2.52,5.97c-.08,4.48-.11,8.88-.08,13.21.03,4.33.27,8.17.73,11.53h-8.68l-.09-.68c-.06-.46-.09-.91-.09-1.37,0-1.66.02-4.4.06-8.23.04-3.83.06-6.58.06-8.26.04-3.05-.21-5.25-.76-6.61-.55-1.36-1.57-2.04-3.06-2.04-2.74,0-5.11.91-7.13,2.74-.08,4.4-.11,8.74-.09,13.02.02,4.28.26,8.1.72,11.44Z"/><path class="cls-1" d="m162.16,353.71c.73,1.39,2.21,2.08,4.45,2.08v1.4c-.79.5-1.89.94-3.3,1.34-1.41.39-2.69.59-3.83.59-1.37,0-2.57-.52-3.59-1.56s-1.61-2.07-1.76-3.11c-.75,1.47-1.94,2.62-3.56,3.44-1.63.82-3.24,1.23-4.84,1.23-3.15,0-5.56-.83-7.22-2.5-1.66-1.67-2.49-3.65-2.49-5.93,0-2.01.63-3.78,1.88-5.29,1.25-1.51,2.89-2.66,4.9-3.42,2.01-.77,4.23-1.15,6.66-1.15,1.31,0,2.6.17,3.89.5.08-1.78.12-3.1.12-3.95,0-1.27-.06-2.36-.17-3.28-.11-.92-.33-1.8-.64-2.63-.31-.83-.78-1.46-1.42-1.9-.63-.44-1.42-.65-2.35-.65-1.37,0-2.43.49-3.19,1.46-.76.98-.99,2.17-.7,3.58-1.12.89-2.31,1.34-3.58,1.34-1.02,0-1.88-.31-2.6-.93-.72-.62-1.07-1.44-1.07-2.46,0-1.97,1.13-3.59,3.39-4.85,2.26-1.26,4.84-1.9,7.75-1.9,3.92,0,7,.85,9.24,2.55,2.24,1.7,3.36,4.17,3.36,7.41,0,.62-.02,1.89-.06,3.8-.04,1.91-.06,3.79-.06,5.63,0,5.04.26,8.1.78,9.18Zm-8.81-10.08c-.73.04-1.43.1-2.12.17-.68.07-1.52.24-2.51.5-.99.26-1.83.59-2.54.98-.71.39-1.31.95-1.82,1.67-.51.72-.76,1.54-.76,2.47,0,1.41.44,2.55,1.31,3.42.87.87,1.88,1.31,3.02,1.31,1.99,0,3.84-.62,5.54-1.87-.08-1.91-.12-4.79-.12-8.65Z"/><path class="cls-1" d="m180.96,320.82l-.72,5.29h5.94c.62,0,1.29-.08,2.01-.23s1.17-.42,1.35-.79c.12.44.19.94.19,1.52,0,2.55-1.83,3.83-5.48,3.83-.33,0-1.02-.03-2.07-.09-1.05-.06-1.76-.09-2.13-.09v14.35c-.02.6-.02,1.23,0,1.9.02.66.05,1.32.08,1.98s.13,1.28.31,1.87c.18.59.4,1.11.67,1.56.27.45.66.8,1.17,1.07.51.27,1.1.4,1.79.4,1.29,0,2.62-.21,4.01-.64,1.39-.42,2.26-.99,2.61-1.7.54,1.33.43,2.63-.34,3.91-.77,1.28-1.97,2.29-3.59,3.05-1.63.76-3.38,1.14-5.24,1.14s-3.56-.23-4.84-.68-2.25-1.16-2.91-2.12c-.66-.95-1.12-2.03-1.37-3.22-.25-1.19-.37-2.67-.37-4.43,0-1.58.1-3.92.31-7.03.21-3.11.31-5.38.31-6.81,0-2.45-.19-3.91-.56-4.39-.85-1.08-1.91-1.85-3.17-2.3l.31-1.9c.19,0,.44-.04.75-.12.31-.08.79-.27,1.45-.58.65-.3,1.38-.86,2.18-1.67.8-.81,1.55-1.83,2.26-3.05h5.1Z"/><path class="cls-1" d="m233.12,358.29h-16.31l.06-4.67v-29.16c-.04-1.72-.12-3.03-.25-3.92-.12-.89-.26-1.5-.4-1.82s-.44-.79-.87-1.42l.5-1.34h10.64l11.73-.19c.73,1.08,1.16,2.32,1.29,3.72s-.03,2.73-.48,4h-1.46c-.19-.91-.88-1.69-2.08-2.33-1.2-.64-2.48-1-3.83-1.06l-5.6-.25c-.27,4.9-.4,9.76-.4,14.59h7.97c.64,0,1.14,0,1.49-.03.35-.02.78-.12,1.29-.31.51-.19.94-.46,1.29-.81.15.79.22,1.51.22,2.18,0,2.63-1.94,3.95-5.82,3.95-.79,0-1.91-.02-3.36-.06-1.45-.04-2.5-.06-3.14-.06-.02,2.76.01,5.79.09,9.09l.09,4.98h11.17c1.45,0,2.51-.45,3.17-1.34.12.89.19,1.6.19,2.12,0,1.58-.57,2.66-1.71,3.25-1.14.59-2.97.89-5.48.89Z"/><path class="cls-1" d="m277.12,358.29h-8.65l-.09-.68c-.06-.46-.09-.91-.09-1.37,0-1.66.02-4.4.06-8.23.04-3.83.06-6.58.06-8.26.04-3.05-.22-5.25-.78-6.61-.56-1.36-1.58-2.04-3.05-2.04-1.66,0-3.08.28-4.25.84-1.17.56-2.29,1.32-3.35,2.27,0,10.1.06,16.45.19,19.05.17,2.26.34,3.94.53,5.04h-8.93l.06-1.96.25-19.76c.02-1.64-.14-3.03-.48-4.19-.34-1.15-.72-1.95-1.12-2.4-.4-.45-.78-.74-1.14-.89l-.5-.25v-1.15c2.43-1.49,4.72-2.24,6.88-2.24,1.24,0,2.24.36,2.99,1.07.75.72,1.19,1.57,1.34,2.57l-.06,1.77c.75-.75,1.44-1.4,2.07-1.95.63-.55,1.42-1.15,2.35-1.79.93-.64,1.93-1.14,2.99-1.48,1.06-.34,2.14-.51,3.24-.51,2.59,0,4.7.81,6.33,2.43,1.63,1.62,2.47,3.61,2.54,5.97-.08,4.48-.11,8.88-.09,13.21.02,4.33.26,8.17.72,11.53Z"/><path class="cls-1" d="m295.79,320.82l-.72,5.29h5.94c.62,0,1.29-.08,2.01-.23s1.17-.42,1.35-.79c.12.44.19.94.19,1.52,0,2.55-1.83,3.83-5.48,3.83-.33,0-1.02-.03-2.07-.09-1.05-.06-1.76-.09-2.13-.09v14.35c-.02.6-.02,1.23,0,1.9.02.66.05,1.32.08,1.98s.13,1.28.31,1.87c.18.59.4,1.11.67,1.56.27.45.66.8,1.17,1.07.51.27,1.1.4,1.79.4,1.29,0,2.62-.21,4.01-.64,1.39-.42,2.26-.99,2.61-1.7.54,1.33.43,2.63-.34,3.91-.77,1.28-1.97,2.29-3.59,3.05-1.63.76-3.38,1.14-5.24,1.14s-3.56-.23-4.84-.68-2.25-1.16-2.91-2.12c-.66-.95-1.12-2.03-1.37-3.22-.25-1.19-.37-2.67-.37-4.43,0-1.58.1-3.92.31-7.03.21-3.11.31-5.38.31-6.81,0-2.45-.19-3.91-.56-4.39-.85-1.08-1.91-1.85-3.17-2.3l.31-1.9c.19,0,.44-.04.75-.12.31-.08.79-.27,1.45-.58.65-.3,1.38-.86,2.18-1.67.8-.81,1.55-1.83,2.26-3.05h5.1Z"/><path class="cls-1" d="m335.66,340.52l-.56.25c-1.06.42-2.49.62-4.29.62l-14.13-.19c.04.48.06,1.27.06,2.37.08,3.09,1.01,5.52,2.79,7.28,1.77,1.76,3.75,2.65,5.93,2.65,1.87,0,3.76-.44,5.68-1.31,1.92-.87,3.6-2.39,5.06-4.54.35,1.35.35,2.64,0,3.87-.35,1.23-.97,2.3-1.85,3.21s-1.94,1.69-3.19,2.37c-1.25.67-2.59,1.18-4.05,1.53-1.45.34-2.92.51-4.39.51-1.89,0-3.65-.29-5.27-.89-1.63-.59-3.11-1.48-4.43-2.68s-2.38-2.8-3.16-4.81c-.78-2.01-1.18-4.33-1.2-6.94,0-3.42.59-6.52,1.76-9.3,1.17-2.78,2.86-4.98,5.07-6.61,2.21-1.63,4.73-2.44,7.58-2.44,1.66,0,3.16.2,4.5.61,1.34.41,2.44.91,3.3,1.53.86.61,1.61,1.36,2.24,2.26.63.89,1.11,1.73,1.43,2.52.32.79.57,1.67.75,2.63s.29,1.73.33,2.3c.04.57.06,1.16.06,1.76v1.46Zm-13.01-11.17c-.85,0-1.61.23-2.27.68-.66.46-1.22,1.13-1.68,2.01-.46.88-.83,1.8-1.14,2.77s-.58,2.1-.82,3.41c1.22-.02,3.07-.08,5.54-.19,2.47-.1,4.38-.17,5.73-.19-.02-1.02-.14-2.01-.34-2.97-.21-.96-.52-1.87-.93-2.72-.42-.85-.98-1.53-1.68-2.04-.71-.51-1.5-.76-2.4-.76Z"/><path class="cls-1" d="m352.99,358.29h-8.68c0-.85.05-3.85.16-9.01.1-5.16.16-9.39.16-12.71,0-1.49-.12-2.77-.36-3.83-.24-1.06-.56-1.85-.96-2.37-.4-.52-.75-.88-1.03-1.09-.28-.21-.58-.35-.89-.44v-1.15c2.32-1.49,4.6-2.24,6.82-2.24,2.68,0,4.01,1.28,4.01,3.83,0,.06-.05.47-.16,1.23-.1.76-.18,1.34-.22,1.76.62-1.49,1.79-3.05,3.52-4.68,1.72-1.63,3.49-2.44,5.29-2.44s3.11.44,3.97,1.32c.86.88,1.29,1.9,1.29,3.06s-.38,2.12-1.15,2.93c-.77.81-1.76,1.21-2.99,1.21-.06,0-.17-.01-.33-.03-.16-.02-.28-.03-.36-.03-.33-1.68-1.31-2.52-2.93-2.52-1.02,0-1.9.23-2.65.68-.75.46-1.33,1.05-1.76,1.77-.43.73-.76,1.66-1.01,2.79-.25,1.13-.41,2.23-.48,3.3-.07,1.07-.11,2.32-.11,3.75,0,3.44.05,6.22.16,8.34.1,2.12.33,4.31.68,6.57Z"/><path class="cls-1" d="m380.31,373.6h-8.93c0-.08.02-1.07.06-2.97.04-1.9.06-3.52.06-4.87v-6.69c0-5.29.04-10.51.12-15.65l.09-7.75c-.04-1.78-.36-3.29-.96-4.51-.6-1.22-1.37-1.99-2.3-2.3v-1.15l.87-.56c.6-.37,1.46-.75,2.58-1.12,1.12-.37,2.22-.56,3.3-.56,1.49,0,2.61.33,3.36,1,.75.66,1.09,1.42,1.03,2.27.95-.95,2.12-1.79,3.49-2.5s2.72-1.07,4.05-1.07c1.68,0,3.29.34,4.82,1.03,1.54.68,2.93,1.68,4.17,2.97,1.24,1.3,2.24,3.01,2.97,5.13.74,2.13,1.1,4.52,1.1,7.17,0,1.74-.21,3.46-.64,5.15-.43,1.69-1.08,3.29-1.98,4.81s-1.97,2.84-3.22,3.98c-1.26,1.14-2.77,2.05-4.56,2.72s-3.71,1.01-5.79,1.01c-1.14,0-2.61-.2-4.42-.59,0,2.59.04,5.29.12,8.08.08,2.79.28,5.12.59,6.99Zm3.52-43.29c-1.47,0-2.81.3-4.01.9-.15,6.1-.22,12.73-.22,19.89l.09,3.55c1.64.44,3.31.65,5.01.65,1.1,0,2.08-.27,2.94-.83.86-.55,1.54-1.24,2.05-2.07.51-.83.93-1.8,1.26-2.92.33-1.12.56-2.19.67-3.21.11-1.02.17-2.04.17-3.08,0-3.92-.74-7.05-2.23-9.38-1.48-2.33-3.4-3.5-5.74-3.5Z"/><path class="cls-1" d="m416.81,358.29h-8.68c0-.85.05-3.85.16-9.01.1-5.16.16-9.39.16-12.71,0-1.49-.12-2.77-.36-3.83-.24-1.06-.56-1.85-.96-2.37s-.75-.88-1.03-1.09c-.28-.21-.58-.35-.89-.44v-1.15c2.32-1.49,4.6-2.24,6.81-2.24,2.68,0,4.01,1.28,4.01,3.83,0,.06-.05.47-.16,1.23-.1.76-.18,1.34-.22,1.76.62-1.49,1.79-3.05,3.52-4.68s3.49-2.44,5.29-2.44,3.11.44,3.97,1.32c.86.88,1.29,1.9,1.29,3.06s-.38,2.12-1.15,2.93c-.77.81-1.76,1.21-2.99,1.21-.06,0-.17-.01-.33-.03s-.28-.03-.36-.03c-.33-1.68-1.31-2.52-2.93-2.52-1.02,0-1.9.23-2.64.68-.75.46-1.33,1.05-1.76,1.77-.43.73-.76,1.66-1.01,2.79-.25,1.13-.41,2.23-.48,3.3-.07,1.07-.11,2.32-.11,3.75,0,3.44.05,6.22.16,8.34s.33,4.31.68,6.57Z"/><path class="cls-1" d="m443.52,344.41c0,5.93.23,10.56.68,13.88h-8.93l.34-21.72c0-1.33-.11-2.5-.34-3.53-.23-1.03-.49-1.79-.78-2.29-.29-.5-.61-.91-.96-1.23-.35-.32-.62-.51-.81-.58s-.31-.09-.37-.09v-1.15c2.43-1.49,4.72-2.24,6.88-2.24,3.07,0,4.61,2.02,4.61,6.07,0,.62-.05,1.68-.16,3.16-.1,1.48-.16,2.64-.16,3.47v6.26Zm-8.99-27.11c0-1.25.44-2.3,1.31-3.16.87-.86,1.92-1.29,3.14-1.29s2.16.43,3,1.29c.84.86,1.26,1.91,1.26,3.16s-.42,2.19-1.26,3.02c-.84.83-1.84,1.25-3,1.25-1.22,0-2.27-.42-3.14-1.25-.87-.83-1.31-1.84-1.31-3.02Z"/><path class="cls-1" d="m470.59,334.82l-1.15-.25c-.33-1.02-.8-1.91-1.42-2.68-.61-.77-1.28-1.35-2.01-1.74-.73-.39-1.44-.68-2.13-.86-.7-.18-1.38-.26-2.04-.26-1.29,0-2.45.29-3.49.87s-1.56,1.52-1.56,2.83c0,.68.32,1.34.95,1.98s1.46,1.21,2.49,1.73c1.03.52,2.15,1.05,3.38,1.6,1.22.55,2.45,1.16,3.69,1.82s2.37,1.38,3.39,2.16c1.03.78,1.86,1.73,2.49,2.85.63,1.12.95,2.34.95,3.67,0,3.32-1.17,5.91-3.52,7.78-2.34,1.87-5.37,2.8-9.09,2.8-2.86,0-5.3-.76-7.31-2.29-2.01-1.52-3.02-3.27-3.02-5.24,0-.95.23-1.78.68-2.49.14,1.47,1.23,2.81,3.27,4,2.03,1.19,4.1,1.79,6.19,1.79,1.66,0,3.08-.31,4.26-.92,1.18-.61,1.77-1.57,1.77-2.88,0-.75-.41-1.47-1.21-2.18-.81-.71-1.82-1.33-3.02-1.87-1.2-.54-2.51-1.18-3.92-1.93-1.41-.75-2.72-1.53-3.92-2.33-1.2-.81-2.21-1.86-3.02-3.16-.81-1.3-1.21-2.72-1.21-4.28,0-3.11,1.11-5.59,3.31-7.44,2.21-1.85,5.14-2.77,8.79-2.77,3.38,0,6.4.81,9.06,2.43.17.58.26,1.25.29,2.01.03.76-.11,1.64-.42,2.65-.31,1.01-.82,1.87-1.52,2.6Z"/><path class="cls-1" d="m505.23,340.52l-.56.25c-1.06.42-2.49.62-4.29.62l-14.13-.19c.04.48.06,1.27.06,2.37.08,3.09,1.01,5.52,2.79,7.28,1.77,1.76,3.75,2.65,5.93,2.65,1.87,0,3.76-.44,5.68-1.31s3.6-2.39,5.06-4.54c.35,1.35.35,2.64,0,3.87-.35,1.23-.97,2.3-1.85,3.21-.88.9-1.95,1.69-3.19,2.37-1.24.67-2.59,1.18-4.04,1.53-1.45.34-2.92.51-4.39.51-1.89,0-3.65-.29-5.27-.89-1.63-.59-3.11-1.48-4.43-2.68-1.33-1.19-2.38-2.8-3.16-4.81-.78-2.01-1.18-4.33-1.2-6.94,0-3.42.59-6.52,1.76-9.3,1.17-2.78,2.86-4.98,5.07-6.61,2.21-1.63,4.73-2.44,7.58-2.44,1.66,0,3.16.2,4.5.61,1.34.41,2.44.91,3.3,1.53.86.61,1.61,1.36,2.24,2.26.63.89,1.11,1.73,1.43,2.52.32.79.57,1.67.75,2.63.18.96.28,1.73.33,2.3.04.57.06,1.16.06,1.76v1.46Zm-13.01-11.17c-.85,0-1.61.23-2.27.68-.66.46-1.22,1.13-1.68,2.01-.46.88-.84,1.8-1.14,2.77-.3.96-.58,2.1-.83,3.41,1.22-.02,3.07-.08,5.54-.19,2.47-.1,4.38-.17,5.73-.19-.02-1.02-.14-2.01-.34-2.97-.21-.96-.52-1.87-.93-2.72-.42-.85-.98-1.53-1.68-2.04-.71-.51-1.5-.76-2.4-.76Z"/><path class="cls-1" d="m530.21,334.82l-1.15-.25c-.33-1.02-.8-1.91-1.42-2.68-.61-.77-1.28-1.35-2.01-1.74-.73-.39-1.44-.68-2.13-.86-.7-.18-1.38-.26-2.04-.26-1.29,0-2.45.29-3.49.87s-1.56,1.52-1.56,2.83c0,.68.32,1.34.95,1.98s1.46,1.21,2.49,1.73c1.03.52,2.15,1.05,3.38,1.6,1.22.55,2.45,1.16,3.69,1.82s2.37,1.38,3.39,2.16c1.03.78,1.86,1.73,2.49,2.85.63,1.12.95,2.34.95,3.67,0,3.32-1.17,5.91-3.52,7.78-2.34,1.87-5.37,2.8-9.09,2.8-2.86,0-5.3-.76-7.31-2.29-2.01-1.52-3.02-3.27-3.02-5.24,0-.95.23-1.78.68-2.49.14,1.47,1.23,2.81,3.27,4,2.03,1.19,4.1,1.79,6.19,1.79,1.66,0,3.08-.31,4.26-.92,1.18-.61,1.77-1.57,1.77-2.88,0-.75-.41-1.47-1.21-2.18-.81-.71-1.82-1.33-3.02-1.87-1.2-.54-2.51-1.18-3.92-1.93-1.41-.75-2.72-1.53-3.92-2.33-1.2-.81-2.21-1.86-3.02-3.16-.81-1.3-1.21-2.72-1.21-4.28,0-3.11,1.1-5.59,3.31-7.44,2.21-1.85,5.14-2.77,8.79-2.77,3.38,0,6.4.81,9.06,2.43.17.58.26,1.25.29,2.01.03.76-.11,1.64-.42,2.65-.31,1.01-.82,1.87-1.52,2.6Z"/><path class="cls-1" d="m570.33,358.29h-9.43l.06-2.49v-31.56c0-3.32-.53-5.63-1.59-6.94l.5-1.34,13.63-.31c1.43-.02,2.82.09,4.17.34,1.35.25,2.67.7,3.97,1.35,1.3.65,2.43,1.47,3.41,2.46s1.76,2.25,2.35,3.8c.59,1.55.89,3.29.89,5.24,0,2.59-.75,4.93-2.24,7.02s-3.48,3.7-5.94,4.84c-2.47,1.14-5.13,1.71-8,1.71-.5,0-1.31-.04-2.43-.12,0,8.55.22,13.88.65,16Zm-.59-27.6l-.06,7.78c.52.12,1.31.19,2.37.19,2.61,0,4.63-.81,6.04-2.43s2.12-3.59,2.12-5.91c0-1.39-.18-2.71-.54-3.97-.36-1.25-.9-2.39-1.6-3.39s-1.65-1.79-2.83-2.37c-1.18-.57-2.51-.81-3.98-.73l-1.28.06c-.06.64-.13,4.23-.22,10.77Z"/><path class="cls-1" d="m619.84,333.42l-9.06,21.29-1.52,5.29-2.24-.62c-1.56-.29-2.76-.93-3.61-1.91-.85-.99-1.37-1.9-1.56-2.75l-5.54-17.71c-.5-1.6-1.06-2.99-1.7-4.19-.63-1.19-1.22-2.06-1.76-2.6-.54-.54-.96-.92-1.28-1.15-.31-.23-.54-.36-.68-.4l-.06-1.15c.75-.54,1.67-1.02,2.77-1.43,1.1-.41,2.13-.62,3.08-.62,1.78,0,3.1.43,3.94,1.28.84.85,1.51,2.21,2.01,4.08.42,2.41,2.07,7.68,4.98,15.81.02.06.24.58.65,1.56.42.98.64,1.53.68,1.65l.25-1.31c.17-.89.35-1.63.56-2.21l4.36-11.48c.58-1.64.87-2.98.87-4.01s-.36-1.73-1.09-2.15v-1.15c.6-.56,1.4-1.04,2.38-1.45.99-.4,1.91-.61,2.79-.61,1.58,0,2.37.79,2.37,2.37,0,1.1-.53,2.97-1.59,5.6Z"/><path class="cls-1" d="m636.15,320.82l-.72,5.29h5.94c.62,0,1.29-.08,2.01-.23s1.17-.42,1.35-.79c.12.44.19.94.19,1.52,0,2.55-1.83,3.83-5.48,3.83-.33,0-1.02-.03-2.07-.09-1.05-.06-1.76-.09-2.13-.09v14.35c-.02.6-.02,1.23,0,1.9.02.66.05,1.32.08,1.98.03.65.13,1.28.31,1.87.18.59.4,1.11.67,1.56.27.45.66.8,1.17,1.07s1.11.4,1.79.4c1.29,0,2.62-.21,4.01-.64,1.39-.42,2.26-.99,2.61-1.7.54,1.33.42,2.63-.34,3.91-.77,1.28-1.97,2.29-3.59,3.05-1.63.76-3.38,1.14-5.24,1.14s-3.56-.23-4.84-.68c-1.28-.46-2.25-1.16-2.91-2.12-.66-.95-1.12-2.03-1.37-3.22-.25-1.19-.37-2.67-.37-4.43,0-1.58.1-3.92.31-7.03.21-3.11.31-5.38.31-6.81,0-2.45-.19-3.91-.56-4.39-.85-1.08-1.91-1.85-3.17-2.3l.31-1.9c.19,0,.44-.04.75-.12s.79-.27,1.45-.58,1.38-.86,2.18-1.67c.8-.81,1.55-1.83,2.26-3.05h5.1Z"/><path class="cls-1" d="m650.58,354.83c0-1.22.44-2.27,1.32-3.14.88-.87,1.92-1.31,3.13-1.31s2.17.44,3.02,1.31c.85.87,1.28,1.92,1.28,3.14s-.42,2.19-1.28,3.03c-.85.84-1.86,1.26-3.02,1.26s-2.25-.42-3.13-1.26c-.88-.84-1.32-1.85-1.32-3.03Z"/><path class="cls-1" d="m688.55,358.29c.08-2.82.12-14.23.12-34.23,0-1.14-.05-2.12-.16-2.92-.1-.81-.24-1.42-.41-1.82-.17-.4-.35-.78-.54-1.14-.2-.35-.4-.64-.61-.87l.5-1.34.75-.22c.52-.15,1.25-.3,2.19-.45.94-.16,1.85-.23,2.72-.23,2.14,0,3.78.28,4.92.84-.44,7.76-.65,16.17-.65,25.24,0,6.29.07,10.62.22,13.01h6.35c1.58,0,3.1-.33,4.56-1s2.29-1.46,2.47-2.4h1.53c.48,1.16.62,2.49.44,3.97-.19,1.48-.63,2.67-1.34,3.56h-23.06Z"/><path class="cls-1" d="m727.42,320.82l-.72,5.29h5.94c.62,0,1.29-.08,2.01-.23s1.17-.42,1.35-.79c.12.44.19.94.19,1.52,0,2.55-1.83,3.83-5.48,3.83-.33,0-1.02-.03-2.07-.09-1.05-.06-1.76-.09-2.13-.09v14.35c-.02.6-.02,1.23,0,1.9.02.66.05,1.32.08,1.98.03.65.13,1.28.31,1.87.18.59.4,1.11.67,1.56.27.45.66.8,1.17,1.07s1.11.4,1.79.4c1.29,0,2.62-.21,4.01-.64,1.39-.42,2.26-.99,2.61-1.7.54,1.33.42,2.63-.34,3.91-.77,1.28-1.97,2.29-3.59,3.05-1.63.76-3.38,1.14-5.24,1.14s-3.56-.23-4.84-.68c-1.28-.46-2.25-1.16-2.91-2.12-.66-.95-1.12-2.03-1.37-3.22-.25-1.19-.37-2.67-.37-4.43,0-1.58.1-3.92.31-7.03.21-3.11.31-5.38.31-6.81,0-2.45-.19-3.91-.56-4.39-.85-1.08-1.91-1.85-3.17-2.3l.31-1.9c.19,0,.44-.04.75-.12s.79-.27,1.45-.58,1.38-.86,2.18-1.67c.8-.81,1.55-1.83,2.26-3.05h5.1Z"/><path class="cls-1" d="m774.29,355.8v1.4c-2.51,1.29-4.84,1.93-7,1.93-1,0-2.02-.31-3.08-.92-1.06-.61-1.84-1.48-2.33-2.6-2.76,2.34-5.62,3.52-8.59,3.52-1.7,0-3.3-.29-4.81-.87-1.5-.58-2.88-1.46-4.14-2.63-1.25-1.17-2.25-2.77-2.97-4.79s-1.09-4.36-1.09-7.02c0-1.74.21-3.49.64-5.23.42-1.74,1.08-3.42,1.98-5.03.89-1.61,1.96-3.03,3.19-4.28,1.23-1.25,2.73-2.24,4.48-2.97,1.75-.74,3.64-1.1,5.65-1.1.85,0,1.86.12,3.02.36,1.16.24,1.74.4,1.74.48,0-1.31-.01-2.51-.03-3.62-.02-1.11-.05-2.12-.09-3.03-.04-.91-.13-1.73-.26-2.44-.14-.71-.32-1.34-.54-1.87-.23-.53-.54-.97-.93-1.34-.39-.36-.87-.64-1.43-.82v-1.15l.87-.47c.58-.33,1.4-.65,2.46-.96,1.06-.31,2.07-.47,3.05-.47s1.7.08,2.3.25c.6.17,1.15.49,1.63.96.49.48.84,1.17,1.07,2.08s.34,2.08.34,3.52v.81c0,.37-.05,1.78-.16,4.23-.1,2.45-.21,5.45-.33,8.99-.11,3.55-.17,6.86-.17,9.93,0,1.76,0,3.21.03,4.34s.06,2.26.12,3.39.14,2.02.25,2.66c.1.64.25,1.28.45,1.91s.42,1.09.67,1.38c.25.29.58.56.98.81.4.25.84.42,1.32.5.48.08,1.05.14,1.71.16Zm-17.71-1.28c1.68,0,3.06-.38,4.14-1.15l.06-7.31v-15.87c-2.28-.56-3.98-.84-5.1-.84-1.31,0-2.45.41-3.42,1.21-.97.81-1.71,1.86-2.21,3.16-.5,1.3-.86,2.61-1.09,3.94-.23,1.33-.34,2.66-.34,3.98,0,4.05.74,7.21,2.21,9.48,1.47,2.27,3.39,3.41,5.76,3.41Z"/><path class="cls-1" d="m778.17,354.83c0-1.22.44-2.27,1.32-3.14.88-.87,1.92-1.31,3.13-1.31s2.17.44,3.02,1.31c.85.87,1.28,1.92,1.28,3.14s-.42,2.19-1.28,3.03c-.85.84-1.86,1.26-3.02,1.26s-2.25-.42-3.13-1.26c-.88-.84-1.32-1.85-1.32-3.03Z"/><rect class="cls-1" x="295.85" y="289.85" width="195.22" height="2"/><rect class="cls-1" x="295.85" y="249.32" width="195.22" height="2"/><path class="cls-1" d="m308,261.32v7.47h3.46c.79,0,1.38-.17,1.75-.53s.61-1.04.74-2.08h.52v6.43h-.52c0-.74-.11-1.28-.29-1.63s-.43-.61-.76-.78c-.32-.17-.8-.26-1.44-.26h-3.46v5.97c0,.96.06,1.6.18,1.91.09.23.29.43.59.6.41.22.84.34,1.29.34h.69v.52h-8.16v-.52h.67c.79,0,1.35-.23,1.71-.69.22-.3.34-1.02.34-2.16v-12.28c0-.96-.06-1.6-.18-1.91-.09-.23-.29-.43-.58-.6-.4-.22-.83-.34-1.29-.34h-.67v-.52h14.15l.18,4.18h-.49c-.24-.89-.53-1.54-.85-1.96-.32-.42-.72-.72-1.19-.9-.47-.19-1.2-.28-2.19-.28h-4.19Z"/><path class="cls-1" d="m328.02,259.85c2.47,0,4.61.94,6.41,2.81s2.71,4.21,2.71,7.02-.91,5.29-2.73,7.19c-1.82,1.91-4.03,2.86-6.62,2.86s-4.82-.93-6.6-2.79c-1.78-1.86-2.67-4.27-2.67-7.22s1.03-5.48,3.08-7.39c1.79-1.65,3.92-2.48,6.41-2.48Zm-.27,1.02c-1.7,0-3.07.63-4.09,1.89-1.28,1.57-1.92,3.87-1.92,6.9s.66,5.49,1.99,7.16c1.02,1.27,2.36,1.91,4.04,1.91,1.79,0,3.26-.7,4.42-2.09s1.75-3.59,1.75-6.59c0-3.25-.64-5.68-1.92-7.28-1.03-1.27-2.45-1.91-4.26-1.91Z"/><path class="cls-1" d="m357.08,279.3h-5.08l-6.44-8.89c-.48.02-.86.03-1.16.03-.12,0-.25,0-.39,0s-.29-.01-.43-.02v5.52c0,1.2.13,1.94.39,2.23.35.41.89.62,1.6.62h.74v.52h-8.15v-.52h.71c.8,0,1.38-.26,1.72-.79.2-.29.29-.98.29-2.06v-12.28c0-1.2-.13-1.94-.39-2.23-.36-.41-.91-.62-1.63-.62h-.71v-.52h6.93c2.02,0,3.51.15,4.47.44.96.29,1.77.84,2.44,1.63.67.79,1,1.73,1,2.83,0,1.17-.38,2.18-1.14,3.04-.76.86-1.94,1.47-3.54,1.82l3.93,5.45c.9,1.25,1.67,2.08,2.31,2.5s1.49.67,2.52.79v.52Zm-13.5-9.77c.18,0,.33,0,.46,0,.13,0,.24,0,.32,0,1.81,0,3.18-.39,4.1-1.18.92-.79,1.38-1.79,1.38-3s-.37-2.15-1.11-2.9-1.73-1.11-2.95-1.11c-.54,0-1.28.09-2.2.27v7.91Z"/><path class="cls-1" d="m375.51,279.51c.95,1.65,1.98,2.86,3.09,3.63,1.11.78,2.37,1.22,3.78,1.33v.45c-1.29-.05-2.67-.31-4.14-.78-1.47-.47-2.86-1.13-4.17-1.96-1.31-.84-2.45-1.73-3.4-2.67-1.35-.54-2.41-1.12-3.2-1.72-1.14-.91-2.03-2.02-2.66-3.34-.63-1.32-.95-2.89-.95-4.69,0-2.84.92-5.2,2.76-7.08,1.84-1.88,4.07-2.82,6.69-2.82s4.64.94,6.46,2.83c1.82,1.88,2.73,4.26,2.73,7.13,0,2.33-.65,4.37-1.94,6.13-1.29,1.76-2.98,2.95-5.05,3.58Zm-2.36-18.58c-1.7,0-3.07.61-4.11,1.82-1.31,1.52-1.96,3.86-1.96,7s.66,5.45,1.99,7.11c1.03,1.28,2.39,1.92,4.08,1.92s3.17-.64,4.25-1.92c1.26-1.51,1.89-3.75,1.89-6.7,0-2.27-.35-4.18-1.04-5.73-.53-1.2-1.24-2.08-2.12-2.64-.88-.57-1.88-.85-2.98-.85Z"/><path class="cls-1" d="m396.72,260.8v-.52h6.73v.52h-.71c-.75,0-1.32.31-1.72.94-.2.29-.29.96-.29,2.02v7.71c0,1.91-.19,3.39-.57,4.44-.38,1.05-1.12,1.95-2.23,2.71-1.11.75-2.61,1.13-4.52,1.13-2.07,0-3.65-.36-4.72-1.08s-1.84-1.69-2.29-2.9c-.3-.83-.45-2.39-.45-4.68v-7.43c0-1.17-.16-1.93-.48-2.3-.32-.36-.84-.55-1.56-.55h-.71v-.52h8.22v.52h-.73c-.78,0-1.35.25-1.68.74-.23.34-.35,1.04-.35,2.1v8.29c0,.74.07,1.58.2,2.54.14.95.38,1.7.74,2.23.35.53.87.97,1.54,1.32.67.35,1.49.52,2.46.52,1.24,0,2.36-.27,3.34-.81.98-.54,1.65-1.24,2.01-2.08.36-.85.54-2.28.54-4.3v-7.7c0-1.19-.13-1.93-.39-2.23-.36-.41-.91-.62-1.63-.62h-.72Z"/><path class="cls-1" d="m416.32,272.93h-7.36l-1.29,3c-.32.74-.48,1.29-.48,1.66,0,.29.14.54.41.76s.87.36,1.79.43v.52h-5.99v-.52c.79-.14,1.31-.32,1.54-.55.48-.45,1-1.36,1.58-2.73l6.69-15.65h.49l6.62,15.81c.53,1.27,1.02,2.1,1.45,2.47.43.38,1.04.59,1.82.64v.52h-7.5v-.52c.76-.04,1.27-.16,1.54-.38s.4-.48.4-.79c0-.41-.19-1.06-.56-1.95l-1.15-2.73Zm-.39-1.04l-3.22-7.68-3.31,7.68h6.53Z"/><path class="cls-1" d="m439.8,274.04l.46.1-1.63,5.16h-14.72v-.52h.72c.8,0,1.38-.26,1.72-.79.2-.3.29-.99.29-2.08v-12.27c0-1.19-.13-1.93-.39-2.23-.36-.41-.91-.62-1.63-.62h-.72v-.52h8.61v.52c-1.01,0-1.72.08-2.12.28-.41.2-.68.44-.83.74s-.22,1.01-.22,2.15v11.94c0,.78.08,1.31.22,1.6.11.2.29.34.52.43s.96.14,2.19.14h1.39c1.46,0,2.48-.11,3.07-.32s1.13-.6,1.61-1.14.97-1.41,1.46-2.59Z"/><path class="cls-1" d="m449.17,278.78v.52h-8.15v-.52h.67c.78,0,1.35-.23,1.71-.69.22-.3.34-1.02.34-2.16v-12.28c0-.96-.06-1.6-.18-1.91-.09-.23-.29-.43-.58-.6-.41-.22-.84-.34-1.29-.34h-.67v-.52h8.15v.52h-.69c-.78,0-1.34.23-1.7.69-.23.3-.35,1.02-.35,2.16v12.28c0,.96.06,1.6.18,1.91.09.23.29.43.59.6.4.22.83.34,1.28.34h.69Z"/><path class="cls-1" d="m465.91,260.29l.21,4.46h-.53c-.1-.79-.24-1.35-.42-1.68-.29-.54-.67-.94-1.16-1.2-.48-.26-1.11-.39-1.9-.39h-2.68v14.52c0,1.17.13,1.9.38,2.19.35.39.9.59,1.64.59h.66v.52h-8.06v-.52h.67c.8,0,1.37-.24,1.71-.73.21-.3.31-.98.31-2.05v-14.52h-2.29c-.89,0-1.52.07-1.89.2-.49.18-.9.52-1.25,1.02-.35.5-.55,1.19-.62,2.05h-.53l.22-4.46h15.52Z"/><path class="cls-1" d="m479.94,260.29h6.63v.52h-.36c-.24,0-.6.11-1.07.32-.47.21-.89.52-1.28.93-.38.4-.86,1.06-1.42,1.96l-4.58,7.22v4.77c0,1.17.13,1.9.39,2.19.36.39.92.59,1.68.59h.62v.52h-8.08v-.52h.67c.8,0,1.37-.24,1.71-.73.21-.3.31-.98.31-2.05v-4.5l-5.22-7.96c-.62-.93-1.04-1.52-1.25-1.75s-.67-.51-1.37-.84c-.19-.09-.46-.14-.81-.14v-.52h8.13v.52h-.42c-.44,0-.84.1-1.21.31-.37.21-.55.51-.55.92,0,.34.29.94.86,1.82l3.97,6.13,3.73-5.86c.56-.88.84-1.53.84-1.96,0-.26-.07-.5-.2-.7-.13-.21-.33-.37-.58-.48-.25-.12-.63-.17-1.14-.17v-.52Z"/><polygon class="cls-1" points="344.51 224.66 344.51 237.69 302.58 237.69 302.58 224.66 344.41 163.74 365.7 195.74 365.7 147.98 386.74 147.98 386.74 237.69 369.73 237.69 341.99 197.76 324 223.99 344.51 224.66"/><polygon class="cls-1" points="393.46 147.98 393.46 237.69 483.4 237.69 483.4 227.42 471.5 215.08 457.39 215.08 457.39 226.1 412.43 226.1 412.43 197.89 462.68 197.89 451.66 184.66 411.99 184.66 411.99 159.54 438.05 159.54 425.41 147.98 393.46 147.98"/><path class="cls-1" d="m444,152.24c-7.79,0-14.12-6.33-14.12-14.12s6.33-14.12,14.12-14.12,14.12,6.33,14.12,14.12-6.33,14.12-14.12,14.12Zm0-26.74c-6.96,0-12.62,5.66-12.62,12.62s5.66,12.62,12.62,12.62,12.62-5.66,12.62-12.62-5.66-12.62-12.62-12.62Z"/><path class="cls-1" d="m449.95,144.12h-3.2l-4.05-5.6c-.3.01-.54.02-.73.02-.08,0-.16,0-.25,0-.09,0-.18,0-.27-.01v3.48c0,.75.08,1.22.25,1.4.22.26.56.39,1.01.39h.47v.33h-5.13v-.33h.45c.51,0,.87-.16,1.09-.49.12-.18.19-.62.19-1.3v-7.73c0-.75-.08-1.22-.25-1.4-.23-.26-.57-.39-1.02-.39h-.45v-.33h4.36c1.27,0,2.21.09,2.81.28s1.12.53,1.54,1.02.63,1.09.63,1.78c0,.74-.24,1.37-.72,1.92-.48.54-1.22.92-2.23,1.15l2.47,3.43c.57.79,1.05,1.31,1.46,1.57s.94.42,1.59.49v.33Zm-8.5-6.15c.11,0,.21,0,.29,0,.08,0,.15,0,.2,0,1.14,0,2-.25,2.58-.74.58-.49.87-1.12.87-1.89s-.23-1.36-.7-1.82c-.47-.47-1.09-.7-1.86-.7-.34,0-.8.06-1.39.17v4.98Z"/><rect class="cls-1" x="354.6" y="89.91" width="68.79" height="3"/><polygon class="cls-1" points="427.07 149.48 389 149.48 389 146.48 419.71 146.48 414.34 141.24 419.03 141.24 427.07 149.48"/><rect class="cls-1" x="386.5" y="91.41" width="5" height="56.58"/><rect class="cls-1" x="414.34" y="91.41" width="4.69" height="49.83"/><path class="cls-1" d="m393.46,0s12.79,28.8,9.52,37.31c-3.27,8.51-11.78,17.24-11.78,17.24v17.02h4.15l12.66-19.64h6.76l23.67,9.82,11.9-4.15,19.64,21.17h-10.69l-22.48-9.38-8.85.81-15.83,3.28-17.11,9.26-3.54,8.66h-4.74l-2.31-13.29-24.66-10.91-13.09-3.49-26.62,1.96,22.69-15.49h27.49l16.49,20.08-1.22-17.46-11.13-8.07-2.68-3.61c-1.48-1.99-1.94-4.55-1.26-6.94l1.35-4.73L393.46,0Z"/><polygon class="cls-1" points="350.93 149.48 389 149.48 389 146.48 358.28 146.48 363.66 141.24 358.97 141.24 350.93 149.48"/><rect class="cls-1" x="358.97" y="91.41" width="4.69" height="49.83"/></g></svg>